<svg width="78" height="93" viewBox="0 0 78 93" fill="none" xmlns="http://www.w3.org/2000/svg">
<g clip-path="url(#clip0_239_2224)">
<path d="M37.3946 11.2636C39.7027 11.2636 41.5739 9.4012 41.5739 7.10384C41.5739 4.80647 39.7027 2.94409 37.3946 2.94409C35.0865 2.94409 33.2153 4.80647 33.2153 7.10384C33.2153 9.4012 35.0865 11.2636 37.3946 11.2636Z" fill="#333333"/>
<path d="M38.6685 6.98822C38.6093 7.32844 38.5136 7.65505 38.3791 7.97259L38.6776 7.26947C38.5318 7.59834 38.3495 7.90227 38.1285 8.18806L38.591 7.59154C38.3677 7.86825 38.1193 8.11321 37.8368 8.32868L38.4361 7.86825C38.1512 8.07919 37.8482 8.25383 37.5223 8.39446L38.2287 8.09733C37.896 8.23342 37.5542 8.32868 37.1987 8.38085L37.9849 8.27652C37.5907 8.32868 37.1987 8.32868 36.8045 8.27652L37.5907 8.38085C37.2215 8.32415 36.866 8.22662 36.5196 8.08146L37.2261 8.37858C36.8956 8.23342 36.5903 8.05197 36.3032 7.83196L36.9025 8.29239C36.6245 8.07012 36.3784 7.82289 36.1619 7.54164L36.6245 8.13816C36.4125 7.85464 36.2371 7.55298 36.0958 7.22864L36.3943 7.93176C36.2576 7.60061 36.1619 7.26039 36.1095 6.90657L36.2143 7.68907C36.1619 7.29668 36.1619 6.90657 36.2143 6.51418L36.1095 7.29668C36.1664 6.92925 36.2644 6.57542 36.4103 6.23066L36.1117 6.93378C36.2576 6.60491 36.4399 6.30098 36.6609 6.01519L36.1983 6.61171C36.4217 6.335 36.67 6.09004 36.9526 5.87457L36.3533 6.335C36.6381 6.12406 36.9412 5.94942 37.2671 5.80879L36.5607 6.10592C36.8934 5.96983 37.2352 5.87457 37.5907 5.8224L36.8045 5.92673C37.1987 5.87457 37.5907 5.87457 37.9849 5.92673L37.1987 5.8224C37.5679 5.8791 37.9234 5.97663 38.2697 6.12179L37.5633 5.82467C37.8937 5.96983 38.1991 6.15128 38.4862 6.37129L37.8869 5.91086C38.1649 6.13313 38.411 6.38036 38.6275 6.66161L38.1649 6.06509C38.3768 6.34861 38.5523 6.65027 38.6936 6.97461L38.3951 6.27149C38.5318 6.60264 38.6275 6.94286 38.6799 7.29668L38.5751 6.51418C38.6275 6.90657 38.6275 7.29668 38.5751 7.68907L38.6799 6.90657L38.6685 6.98595C38.5455 7.37607 38.5272 7.76846 38.6161 8.15857C38.6343 8.55096 38.7506 8.91386 38.967 9.25181C39.3271 9.86194 40.0289 10.4448 40.7331 10.6036C41.4896 10.776 42.3396 10.7374 43.0119 10.3065C43.6157 9.91864 44.2561 9.28583 44.37 8.54869C44.4406 8.08146 44.525 7.60515 44.5295 7.13111C44.5341 6.65707 44.4543 6.18303 44.3837 5.72941C44.2766 5.05124 44.0077 4.41163 43.7069 3.79696C43.1349 2.62888 42.0912 1.59008 40.9632 0.948197C40.3662 0.610246 39.6894 0.322194 39.0126 0.186107C38.3358 0.050019 37.6112 -0.0543148 36.9207 0.0250696C36.4718 0.0749684 36.0069 0.120331 35.5671 0.233737C35.1273 0.347144 34.6716 0.551275 34.25 0.73953C33.637 1.01397 33.106 1.42224 32.5956 1.85318C32.0852 2.28412 31.6476 2.85116 31.2921 3.41819C31.1144 3.7017 30.9868 4.00563 30.8569 4.3141C30.7202 4.63844 30.5789 4.95598 30.4923 5.2962C30.3237 5.96303 30.2211 6.68883 30.2667 7.38061C30.3123 8.07238 30.408 8.78004 30.6609 9.42646C30.8204 9.83472 30.9868 10.2543 31.2055 10.6376C31.4357 11.0414 31.7365 11.4043 32.0259 11.7626C32.4452 12.282 32.9853 12.6948 33.5345 13.0713C34.6556 13.8402 36.1641 14.2417 37.52 14.2031C38.2583 14.1827 39.0377 14.0738 39.7304 13.8039C40.6966 13.4274 41.4008 13.0237 42.1961 12.3501C42.7384 11.8896 43.201 11.2954 43.5588 10.6875C43.9393 10.0411 44.2447 9.29717 44.3723 8.55323C44.4953 8.16311 44.5136 7.77072 44.4247 7.38061C44.4065 6.98822 44.2902 6.62532 44.0738 6.28737C43.7137 5.67724 43.0119 5.09433 42.3077 4.93556C41.5512 4.76319 40.7012 4.80174 40.0289 5.23269C39.4182 5.62507 38.7984 6.24881 38.6708 6.99049L38.6685 6.98822Z" fill="#333333"/>
<path d="M17.7313 13.298C19.2672 13.9445 20.7142 14.7701 22.0382 15.7794L21.4434 15.3212C22.8927 16.4371 24.1642 17.7549 25.2831 19.1974L24.8228 18.6055C26.1741 20.3519 27.2884 22.2571 28.4461 24.1306C28.9611 24.9653 29.4897 25.7931 30.0754 26.5802C30.7499 27.4852 31.4495 28.3879 32.3017 29.1386C32.8053 29.5809 33.3409 29.9983 33.906 30.3589C34.4711 30.7195 35.0887 30.9758 35.7153 31.2321C36.1346 31.4022 36.5676 31.5429 37.0119 31.629C38.0511 31.8332 39.0925 31.7198 40.1248 31.5292C40.8654 31.3932 41.5604 31.1006 42.244 30.7898C42.6998 30.5812 43.1236 30.3158 43.5224 30.0141C44.1263 29.556 44.7005 29.1001 45.2041 28.533C45.7077 27.966 46.1703 27.3604 46.5942 26.7367C48.0025 24.6568 48.898 22.2571 49.8574 19.955C49.9645 19.6987 50.0716 19.4447 50.1787 19.1884L49.8824 19.8869C50.696 17.9681 51.6257 16.0992 52.9041 14.4389L52.4438 15.0309C53.6698 13.4591 55.1532 12.1209 56.6891 10.8575C57.2383 10.4062 57.5505 9.46717 57.5505 8.789C57.5505 8.07227 57.2292 7.21492 56.6891 6.72047C56.1491 6.22602 55.3925 5.8291 54.6109 5.86312L53.8293 5.96745C53.3302 6.10581 52.8995 6.35757 52.5326 6.72047C50.5 8.39435 48.6291 10.2134 47.1616 12.4112C46.2592 13.763 45.5437 15.2123 44.9056 16.7025C44.4499 17.7662 44.0123 18.8345 43.5611 19.9006L43.8574 19.202C43.0849 21.0255 42.2577 22.8673 41.0385 24.4459L41.4988 23.8539C41.0454 24.4323 40.5395 24.9676 39.9584 25.4212L40.5532 24.963C40.102 25.3078 39.6166 25.5981 39.0925 25.8181L39.7943 25.5232C39.3021 25.7251 38.7871 25.8612 38.2584 25.936L39.0401 25.8317C38.6344 25.8839 38.2265 25.902 37.8186 25.8884L38.6003 25.9927C38.1308 25.8952 37.6728 25.7546 37.233 25.5709L37.9349 25.8657C37.3492 25.6162 36.8023 25.2896 36.2987 24.9018L36.8935 25.3599C36.1369 24.7725 35.4875 24.0648 34.9018 23.3095L35.3621 23.9015C33.9333 22.053 32.835 19.9731 31.568 18.018C29.9751 15.5639 28.143 13.1914 25.8346 11.3656C24.244 10.1068 22.5759 9.03623 20.7005 8.24692C20.3633 8.03372 19.9987 7.91804 19.6067 7.8999C19.2148 7.81371 18.8251 7.82959 18.4331 7.95206C17.7518 8.13805 17.0112 8.66426 16.6762 9.29706C16.3162 9.97523 16.1339 10.7986 16.38 11.5516C16.5987 12.2229 17.0477 13.0123 17.7313 13.3003V13.298Z" fill="#333333"/>
<path d="M70.3414 32.4457C72.6495 32.4457 74.5206 30.5833 74.5206 28.286C74.5206 25.9886 72.6495 24.1262 70.3414 24.1262C68.0332 24.1262 66.1621 25.9886 66.1621 28.286C66.1621 30.5833 68.0332 32.4457 70.3414 32.4457Z" fill="#7E003F"/>
<path d="M70.437 29.5152C70.3322 29.5379 70.2251 29.556 70.118 29.5719L70.9042 29.4675C70.5396 29.5129 70.175 29.5152 69.8104 29.4721L70.5965 29.5764C70.216 29.5242 69.8514 29.4267 69.4959 29.2793L70.2023 29.5764C69.8764 29.4358 69.5756 29.2589 69.2908 29.0479L69.8901 29.5084C69.6098 29.2906 69.3592 29.0434 69.1381 28.7667L69.6007 29.3632C69.3797 29.0774 69.1974 28.769 69.0515 28.4378L69.35 29.1409C69.2065 28.7939 69.1085 28.4378 69.0538 28.0681L69.1586 28.8506C69.1131 28.4877 69.1108 28.1248 69.1541 27.7619L69.0493 28.5444C69.1017 28.1656 69.1996 27.8027 69.3478 27.4489L69.0493 28.152C69.1905 27.8277 69.3683 27.5283 69.5802 27.2448L69.1176 27.8413C69.3364 27.5623 69.5848 27.3128 69.8628 27.0928L69.2635 27.5532C69.5506 27.3332 69.8605 27.1518 70.1932 27.0066L69.4868 27.3037C69.8354 27.1609 70.1932 27.0633 70.5646 27.0089L69.7785 27.1132C70.1431 27.0679 70.5077 27.0656 70.8723 27.1087L70.0861 27.0044C70.4666 27.0565 70.8312 27.1541 71.1867 27.3015L70.4803 27.0044C70.8062 27.145 71.107 27.3219 71.3918 27.5328L70.7925 27.0724C71.0728 27.2901 71.3235 27.5374 71.5445 27.8141L71.0819 27.2176C71.3029 27.5033 71.4853 27.8118 71.6311 28.143L71.3326 27.4398C71.4761 27.7869 71.5741 28.143 71.6288 28.5127L71.524 27.7302C71.5696 28.0931 71.5718 28.456 71.5286 28.8189L71.6334 28.0364C71.581 28.4151 71.483 28.778 71.3349 29.1319L71.6334 28.4287C71.4921 28.7531 71.3143 29.0525 71.1024 29.336L71.565 28.7395C71.3462 29.0185 71.0979 29.2679 70.8199 29.488L71.4192 29.0275C71.132 29.2475 70.8221 29.429 70.4894 29.5741L71.1958 29.277C70.9497 29.3791 70.6968 29.4585 70.4347 29.5174C69.7306 29.6762 69.0265 30.2614 68.6687 30.8692C68.3109 31.4771 68.14 32.4297 68.3702 33.1374C68.6003 33.845 69.0447 34.5368 69.7283 34.8952C70.4507 35.2762 71.2027 35.3737 72.0071 35.1923C73.3242 34.8974 74.655 34.1399 75.5551 33.1328C76.4393 32.1417 77.1412 30.9282 77.3371 29.5991C77.4055 29.1387 77.4853 28.6669 77.4761 28.1997C77.467 27.7324 77.3895 27.2493 77.3075 26.7866C77.189 26.1153 76.9042 25.4507 76.5851 24.8519C76.4826 24.6591 76.3641 24.4777 76.2342 24.303C75.9585 23.931 75.6782 23.5477 75.3455 23.2257C74.8738 22.7698 74.3246 22.3434 73.7367 22.044C72.3671 21.3454 70.9064 21.0709 69.3819 21.2751C67.8575 21.4792 66.5039 22.1279 65.3873 23.1735C64.4302 24.0694 63.6736 25.3554 63.4002 26.6392C63.2589 27.3015 63.1564 28.0114 63.2224 28.6918C63.268 29.1613 63.3227 29.6445 63.4412 30.1049C63.5597 30.5653 63.7579 30.9895 63.9425 31.4068C64.5191 32.7042 65.6767 33.8836 66.9414 34.53C67.5794 34.8543 68.2699 35.1424 68.9832 35.2467C69.4731 35.3193 69.9699 35.4032 70.4666 35.3874C70.9634 35.3715 71.5012 35.2944 72.0048 35.19C72.7044 35.0471 73.4199 34.4347 73.7709 33.8382C74.1423 33.2077 74.2995 32.2778 74.0694 31.5701C73.8392 30.8624 73.3949 30.1707 72.7112 29.8123C71.982 29.429 71.246 29.3496 70.4325 29.5152H70.437Z" fill="#7E003F"/>
<path d="M57.3317 12.781C57.3135 13.5136 57.2565 14.2416 57.1585 14.9674L57.2634 14.1895C57.0332 15.8543 56.582 17.4783 55.928 19.0297L56.2242 18.3311C55.1737 20.7965 53.6356 22.9898 52.0176 25.1128C50.6549 26.9001 49.1623 28.676 48.2554 30.7491C47.9592 31.4227 47.6652 32.1009 47.4806 32.8153C47.296 33.5298 47.1912 34.2919 47.1525 35.0358C47.1137 35.7798 47.198 36.5782 47.3439 37.3108C47.3758 37.4695 47.4419 37.6215 47.5034 37.7712C47.6561 38.1454 47.811 38.5265 47.9911 38.8916C48.1392 39.1933 48.3101 39.4814 48.5038 39.7558C49.4791 41.1303 50.7393 42.287 52.2979 42.9765C53.1046 43.3326 53.9113 43.6502 54.7681 43.8566C55.6249 44.063 56.5524 44.1855 57.4525 44.2943C60.1916 44.6255 62.958 44.4418 65.7017 44.6754C66.007 44.7003 66.3124 44.7343 66.6154 44.7729L65.8338 44.6686C67.6067 44.909 69.3112 45.3445 70.9633 46.0362L70.2615 45.7414C71.3963 46.2222 72.4901 46.787 73.568 47.3835C74.2448 47.7578 75.0811 47.8848 75.8331 47.6784C76.5144 47.4924 77.255 46.9662 77.59 46.3334C77.95 45.6552 78.1323 44.8319 77.8862 44.0789C77.6538 43.3621 77.2117 42.7044 76.5349 42.3301C74.9466 41.4546 73.315 40.6585 71.6105 40.0302C70.282 39.5403 68.9124 39.2409 67.5133 39.0413C65.2482 38.7193 62.9876 38.717 60.7066 38.6535C59.5216 38.6195 58.3367 38.5605 57.1608 38.404L57.9424 38.5083C56.8441 38.3586 55.7548 38.1228 54.7294 37.6986L55.4312 37.9935C54.8524 37.7485 54.301 37.4446 53.7996 37.0658L54.3944 37.524C53.9728 37.1996 53.5945 36.8254 53.2664 36.4058L53.7267 36.9978C53.3917 36.56 53.1206 36.0837 52.9041 35.5802L53.2003 36.2788C53.1023 36.0451 53.0226 35.8274 52.9884 35.5779L53.0932 36.3559C53.0066 35.7185 53.0066 35.0767 53.0909 34.4393L52.9861 35.2173C53.0864 34.5006 53.2938 33.8088 53.5718 33.1419L53.2755 33.8405C54.2486 31.5475 55.9326 29.6105 57.4229 27.6395C59.369 25.0629 61.0484 22.357 62.0989 19.286C62.8099 17.2038 63.1563 14.9788 63.2132 12.7832C63.2337 12.0461 62.8714 11.2318 62.3519 10.7147C61.8323 10.1976 61.0051 9.8256 60.2736 9.85736C58.6466 9.92994 57.3773 11.1434 57.334 12.7832L57.3317 12.781Z" fill="#7E003F"/>
<path d="M60.3782 69.5453C62.6864 69.5453 64.5575 67.6829 64.5575 65.3856C64.5575 63.0882 62.6864 61.2258 60.3782 61.2258C58.0701 61.2258 56.199 63.0882 56.199 65.3856C56.199 67.6829 58.0701 69.5453 60.3782 69.5453Z" fill="#E20042"/>
<path d="M59.2184 65.812C59.1705 65.7168 59.1249 65.6215 59.0817 65.524L59.3802 66.2271C59.2412 65.8914 59.1432 65.5489 59.0885 65.1883L59.1933 65.9708C59.1432 65.5966 59.1409 65.2246 59.1865 64.8481L59.0817 65.6306C59.1341 65.2609 59.2298 64.9048 59.3733 64.5578L59.0748 65.2609C59.2229 64.9161 59.4121 64.5963 59.6422 64.2969L59.1796 64.8934C59.387 64.6349 59.6217 64.4035 59.8815 64.1949L59.2822 64.6553C59.5761 64.4285 59.8929 64.2448 60.2347 64.0951L59.5283 64.3922C59.8656 64.2538 60.2096 64.1563 60.572 64.1019L59.7858 64.2062C60.1618 64.1563 60.5355 64.154 60.9138 64.1994L60.1276 64.0951C60.499 64.1472 60.8568 64.2425 61.2055 64.3854L60.499 64.0883C60.8454 64.2357 61.1667 64.4239 61.4675 64.653L60.8682 64.1926C61.128 64.399 61.3604 64.6326 61.5701 64.8912L61.1075 64.2947C61.3354 64.5872 61.5199 64.9025 61.6703 65.2427L61.3718 64.5396C61.5108 64.8753 61.6088 65.2178 61.6635 65.5784L61.5587 64.7959C61.6088 65.1701 61.6111 65.5421 61.5655 65.9186L61.6703 65.1361C61.6179 65.5058 61.5222 65.8619 61.3787 66.209L61.6772 65.5058C61.5291 65.8506 61.3399 66.1704 61.1098 66.4698L61.5724 65.8733C61.365 66.1318 61.1303 66.3632 60.8705 66.5719L61.4698 66.1114C61.1758 66.3382 60.8591 66.522 60.5173 66.6717L61.2237 66.3745C60.8864 66.5129 60.5423 66.6104 60.18 66.6648L60.9662 66.5605C60.5902 66.6104 60.2165 66.6127 59.8382 66.5673L60.6244 66.6717C60.2529 66.6195 59.8952 66.5242 59.5465 66.3813L60.2529 66.6785C59.9066 66.531 59.5853 66.3428 59.2845 66.1137L59.8838 66.5741C59.624 66.3677 59.3916 66.1341 59.1819 65.8755L59.6445 66.4721C59.4827 66.2634 59.3414 66.0434 59.2184 65.812C58.8788 65.1747 58.1382 64.6485 57.4523 64.4602C56.7664 64.272 55.8025 64.3536 55.1736 64.7574C54.5446 65.1611 53.9863 65.7667 53.8154 66.5152C53.6354 67.3067 53.7288 68.0597 54.1139 68.7833C54.4352 69.3889 54.8728 69.9604 55.3627 70.439C55.8526 70.9176 56.4018 71.3395 56.9989 71.6388C58.2112 72.249 59.6035 72.6209 60.9685 72.4486C61.4197 72.3919 61.88 72.3488 62.3175 72.224C62.755 72.0993 63.2199 71.8929 63.6483 71.6933C64.2704 71.403 64.8515 70.9539 65.346 70.4866C65.5875 70.2598 65.7835 70.0035 65.9863 69.7404C66.2028 69.4614 66.4193 69.1893 66.5902 68.8808C66.9138 68.2979 67.1895 67.6515 67.324 66.996C67.6316 65.499 67.5245 64.0361 66.9275 62.6253C66.3304 61.2145 65.3505 60.0827 64.0516 59.2934C63.4888 58.9509 62.853 58.6833 62.215 58.5177C61.5769 58.3522 60.8454 58.2501 60.1663 58.2841C59.4873 58.3181 58.7558 58.4089 58.1063 58.6561C57.6734 58.8217 57.229 58.994 56.8234 59.2231C56.4178 59.4522 56.06 59.7471 55.7022 60.0306C55.1325 60.4842 54.6631 61.0807 54.278 61.6931C54.0251 62.0991 53.8496 62.5505 53.6719 62.9905C53.5784 63.2196 53.5009 63.4554 53.4463 63.6981C53.2845 64.4217 53.1865 65.1906 53.2776 65.9322C53.3369 66.4176 53.3847 66.9166 53.5306 67.3861C53.6764 67.8556 53.8861 68.3319 54.1117 68.781C54.4352 69.4161 55.2055 69.9491 55.8777 70.1328C56.5864 70.3279 57.5275 70.2394 58.1565 69.8357C58.7854 69.432 59.3437 68.8264 59.5146 68.0779C59.6969 67.2795 59.5898 66.5446 59.2161 65.8098L59.2184 65.812Z" fill="#E20042"/>
<path d="M71.9932 48.8329C71.3096 48.9985 70.6168 49.13 69.9195 49.2275L70.7011 49.1232C69.0012 49.35 67.283 49.3455 65.583 49.1232L66.3646 49.2275C63.744 48.8715 61.2556 47.996 58.8128 47.0161C56.7482 46.186 54.67 45.2311 52.4573 44.8569C51.7281 44.7344 50.9829 44.6255 50.2423 44.6142C49.5017 44.6028 48.7657 44.7004 48.0433 44.8251C47.542 44.9113 47.0543 45.0542 46.5826 45.2447C46.2545 45.3763 45.9127 45.4988 45.5982 45.6621C45.3407 45.7936 45.1014 46.0113 44.8758 46.186C44.5067 46.4695 44.1466 46.7553 43.8253 47.0955C42.6472 48.3384 41.7835 49.9216 41.4622 51.6068C41.2959 52.471 41.1933 53.3601 41.1979 54.2401C41.2025 55.1201 41.3255 56.0682 41.4508 56.9777C41.8337 59.7653 42.7566 62.4349 43.267 65.1952C43.324 65.4991 43.3718 65.8053 43.4151 66.1138L43.3103 65.3358C43.5405 67.0868 43.5724 68.8242 43.3399 70.5774L43.4448 69.7995C43.2761 71.0401 43.0095 72.2604 42.7087 73.4761C42.5241 74.2268 42.6085 75.057 43.005 75.7306C43.3627 76.3385 44.0623 76.9168 44.7619 77.0756C45.5139 77.2457 46.3593 77.2094 47.027 76.7808C47.6947 76.3521 48.1937 75.7805 48.3783 75.032C48.7999 73.3219 49.1326 71.5958 49.3058 69.8426C49.4448 68.4295 49.3855 67.0346 49.226 65.6238C48.9662 63.3512 48.3715 61.167 47.8291 58.951C47.5443 57.7852 47.2845 56.6126 47.1227 55.4218L47.2275 56.1998C47.0794 55.0884 47.0202 53.9611 47.1637 52.8452L47.0589 53.6232C47.1478 52.97 47.3096 52.3326 47.5671 51.7225L47.2708 52.4211C47.4736 51.9538 47.7311 51.5161 48.0388 51.1124L47.5785 51.7043C47.9157 51.2734 48.3054 50.8924 48.7361 50.5521L48.1413 51.0103C48.3441 50.8538 48.5355 50.7268 48.7703 50.627L48.0684 50.9218C48.6449 50.6837 49.2442 50.5181 49.8618 50.4319L49.0802 50.5363C49.8208 50.4387 50.5682 50.4546 51.3065 50.5521L50.5249 50.4478C52.9996 50.7858 55.3103 51.8926 57.6073 52.8067C58.9472 53.3397 60.3031 53.8409 61.6954 54.2265C63.4113 54.7051 65.1888 55.0022 66.9662 55.1133C69.1675 55.2517 71.4121 54.9977 73.5541 54.4805C74.2583 54.3104 74.9487 53.7525 75.3111 53.1355C75.6734 52.5186 75.8352 51.5841 75.6073 50.881C75.1037 49.3342 73.5929 48.4496 71.9909 48.8374L71.9932 48.8329Z" fill="#E20042"/>
<path d="M22.004 70.7794C24.3121 70.7794 26.1832 68.9171 26.1832 66.6197C26.1832 64.3223 24.3121 62.46 22.004 62.46C19.6958 62.46 17.8247 64.3223 17.8247 66.6197C17.8247 68.9171 19.6958 70.7794 22.004 70.7794Z" fill="#2F4858"/>
<path d="M21.163 65.7373C21.2815 65.6239 21.4046 65.515 21.5344 65.413L20.9351 65.8734C21.2337 65.6466 21.5527 65.4629 21.8991 65.3154L21.1926 65.6125C21.5322 65.4765 21.8808 65.3835 22.2431 65.3336L21.457 65.4379C21.817 65.3948 22.1771 65.3948 22.5371 65.4379L21.7509 65.3336C22.1406 65.3857 22.512 65.4878 22.8744 65.6398L22.1679 65.3426C22.4847 65.4833 22.7809 65.6556 23.0589 65.8643L22.4596 65.4039C22.7422 65.6239 22.9929 65.8734 23.2162 66.1524L22.7536 65.5558C22.9815 65.853 23.166 66.1705 23.3142 66.5153L23.0156 65.8121C23.1524 66.1501 23.2458 66.4971 23.2959 66.8577L23.1911 66.0752C23.2344 66.4336 23.2344 66.792 23.1911 67.1503L23.2959 66.3678C23.2435 66.7557 23.141 67.1254 22.9883 67.486L23.2868 66.7829C23.1455 67.0982 22.9724 67.393 22.7627 67.6697L23.2253 67.0732C23.0043 67.3545 22.7536 67.604 22.4733 67.8262L23.0726 67.3658C22.7741 67.5926 22.4551 67.7763 22.1087 67.9238L22.8151 67.6266C22.4756 67.7627 22.1269 67.8557 21.7646 67.9056L22.5508 67.8013C22.1907 67.8444 21.8307 67.8444 21.4706 67.8013L22.2568 67.9056C21.8671 67.8535 21.4957 67.7514 21.1334 67.5994L21.8398 67.8966C21.5231 67.7559 21.2268 67.5835 20.9488 67.3749L21.5481 67.8353C21.2656 67.6153 21.0149 67.3658 20.7916 67.0868L21.2542 67.6833C21.0263 67.3862 20.8417 67.0687 20.6936 66.7239L20.9921 67.4271C20.8554 67.0891 20.7619 66.7421 20.7118 66.3814L20.8166 67.1639C20.7733 66.8056 20.7733 66.4472 20.8166 66.0889L20.7118 66.8714C20.7642 66.4835 20.8668 66.1138 21.0194 65.7532L20.7209 66.4563C20.8622 66.141 21.0354 65.8462 21.245 65.5695L20.7825 66.166C20.9009 66.0163 21.0286 65.8734 21.163 65.7373C21.6985 65.202 22.0289 64.4127 22.0289 63.6574C22.0289 62.9021 21.7076 62.0743 21.163 61.5775C20.6184 61.0808 19.8596 60.6794 19.0734 60.7157C18.2872 60.752 17.5466 61.0128 16.9837 61.5775C16.0335 62.5279 15.2564 63.8185 15.0331 65.1567C14.9192 65.8326 14.828 66.4858 14.9055 67.1662C14.9556 67.6108 15.0058 68.0803 15.1265 68.5157C15.2473 68.9512 15.4479 69.3867 15.637 69.804C16.1862 71.0266 17.2777 72.1085 18.433 72.7708C19.0164 73.1042 19.6795 73.3854 20.3427 73.526C21.0058 73.6667 21.7167 73.7687 22.3981 73.7052C23.0795 73.6417 23.7517 73.5533 24.3897 73.3038C24.8136 73.1359 25.2648 72.9613 25.6613 72.7231C26.0578 72.485 26.4315 72.1856 26.7847 71.8885C27.3043 71.453 27.7441 70.8837 28.1041 70.3144C28.2864 70.0263 28.4141 69.7179 28.5485 69.4049C28.6829 69.0919 28.8242 68.7675 28.9108 68.4273C29.0772 67.7695 29.1774 67.0641 29.1387 66.3837C29.1 65.7033 29.0134 65.0206 28.7809 64.3946C28.4824 63.5916 28.152 62.9566 27.6347 62.2897C27.1174 61.6229 26.5637 61.1239 25.8527 60.6408C25.2602 60.2371 24.5538 59.9422 23.8611 59.7608C23.1683 59.5793 22.3844 59.4727 21.6552 59.534C21.1653 59.5748 20.6594 59.6338 20.1809 59.754C19.7023 59.8742 19.2785 60.0738 18.8455 60.2643C18.155 60.5705 17.5238 61.0559 16.9837 61.5753C16.4437 62.0947 16.1178 62.9157 16.1178 63.6552C16.1178 64.3946 16.4391 65.2383 16.9837 65.735C17.5284 66.2317 18.2872 66.6332 19.0734 66.5969C19.8596 66.5606 20.5842 66.2907 21.163 65.735V65.7373Z" fill="#2F4858"/>
<path d="M41.387 72.8728C40.9039 72.0676 40.4755 71.2352 40.1086 70.3734L40.4048 71.0719C39.744 69.5001 39.3065 67.8512 39.0763 66.1637L39.1811 66.9417C38.8211 64.2199 39.0262 61.4936 39.2632 58.7719C39.4819 56.2611 39.6802 53.7004 39.0535 51.2258C38.8689 50.5023 38.5795 49.8037 38.2605 49.1301C37.9415 48.4564 37.4812 47.8463 37.0072 47.243C36.4831 46.5739 35.7516 46.0545 35.0019 45.6508C34.2522 45.247 33.4819 44.9272 32.673 44.7549C31.03 44.4056 29.3824 44.4759 27.7531 44.8841C26.2879 45.2516 24.875 45.8935 23.5397 46.5898C21.2153 47.7987 19.0801 49.3433 16.7216 50.4887C16.4641 50.6134 16.202 50.7336 15.9377 50.8448L16.6396 50.5499C16.1929 50.7359 15.7508 50.9242 15.3065 51.1124L16.0083 50.8176C14.4975 51.4481 12.9069 51.8246 11.289 52.0469L12.0706 51.9426C11.0862 52.0741 10.0995 52.1535 9.10822 52.2125C8.3266 52.2578 7.59284 52.5073 7.02998 53.0698C6.51954 53.5779 6.1367 54.4103 6.16861 55.1384C6.20051 55.8664 6.45345 56.6807 7.02998 57.2069C7.60651 57.7331 8.33116 58.1096 9.10822 58.0642C10.7467 57.969 12.3874 57.8079 14.003 57.5063C15.6187 57.2046 17.1546 56.6739 18.6585 55.998L17.9567 56.2928C19.4219 55.7122 20.7915 54.9932 22.1428 54.188C23.4052 53.435 24.6517 52.6502 25.9415 51.9448C26.657 51.5547 27.3862 51.1895 28.1359 50.872L27.4341 51.1669C28.3661 50.779 29.3346 50.4683 30.3372 50.3299L29.5556 50.4343C30.1823 50.3526 30.8135 50.3435 31.4402 50.4252L30.6585 50.3208C31.1758 50.3957 31.6772 50.5295 32.1625 50.7268L31.4607 50.432C32.0099 50.6633 32.518 50.9673 32.9897 51.3279L32.395 50.8697C32.5704 51.0058 32.7094 51.2054 32.8462 51.3801L32.3858 50.7881C32.7573 51.2757 33.0649 51.8019 33.3042 52.3667L33.008 51.6681C33.3042 52.3803 33.4865 53.1288 33.589 53.8931L33.4842 53.1152C33.801 55.5489 33.425 58.0279 33.2381 60.4594C32.9943 63.6098 33.0421 66.7897 33.8124 69.8744C34.3319 71.9588 35.2024 73.9865 36.3053 75.8282C36.6859 76.4633 37.3422 76.9759 38.0623 77.1732C38.7824 77.3705 39.703 77.2798 40.3274 76.8783C40.9517 76.4769 41.5078 75.8758 41.6787 75.1296C41.8496 74.3834 41.7949 73.5623 41.3824 72.8751L41.387 72.8728Z" fill="#2F4858"/>
<path d="M7.13263 34.8727C9.44078 34.8727 11.3119 33.0103 11.3119 30.713C11.3119 28.4156 9.44078 26.5532 7.13263 26.5532C4.82449 26.5532 2.95337 28.4156 2.95337 30.713C2.95337 33.0103 4.82449 34.8727 7.13263 34.8727Z" fill="#543367"/>
<path d="M7.479 29.5198C7.73878 29.6491 7.98261 29.8011 8.21277 29.9757L7.61345 29.5153C7.89374 29.7376 8.14213 29.9871 8.36317 30.2683L7.90058 29.6718C8.11022 29.9531 8.28569 30.2525 8.42469 30.5723L8.12617 29.8691C8.26974 30.2162 8.36773 30.57 8.42014 30.942L8.31531 30.1595C8.36317 30.536 8.36089 30.9079 8.31531 31.2822L8.42014 30.4997C8.36545 30.8603 8.26974 31.2051 8.13073 31.5407L8.42925 30.8376C8.28113 31.1778 8.09655 31.4908 7.87095 31.7857L8.33354 31.1892C8.11022 31.4682 7.85956 31.7154 7.57699 31.9354L8.17631 31.475C7.89374 31.6836 7.59294 31.8583 7.27164 31.9966L7.97806 31.6995C7.6294 31.8424 7.27392 31.9399 6.9002 31.9921L7.68637 31.8878C7.3081 31.9354 6.93438 31.9331 6.55838 31.8878L7.34456 31.9921C6.98223 31.9377 6.63586 31.8424 6.2986 31.7041L7.00502 32.0012C6.66321 31.8537 6.34874 31.67 6.0525 31.4455L6.65181 31.9059C6.37152 31.6836 6.12314 31.4341 5.9021 31.1529L6.36469 31.7494C6.15504 31.4682 5.97957 31.1688 5.84057 30.849L6.13909 31.5521C5.99553 31.2051 5.89754 30.8512 5.84513 30.4793L5.94995 31.2618C5.9021 30.8853 5.90438 30.5133 5.94995 30.139L5.84513 30.9215C5.89982 30.5609 5.99553 30.2162 6.13453 29.8805L5.83601 30.5836C5.98413 30.2434 6.16871 29.9304 6.39431 29.6355L5.93172 30.232C6.15504 29.9531 6.4057 29.7058 6.68827 29.4858L6.08896 29.9463C6.37152 29.7376 6.67232 29.5629 6.99363 29.4246L6.28721 29.7217C6.63586 29.5788 6.99135 29.4813 7.36507 29.4291L6.57889 29.5335C6.95717 29.4858 7.33088 29.4881 7.70688 29.5335L6.92071 29.4291C7.28303 29.4836 7.6294 29.5788 7.96666 29.7172L7.26024 29.4201C7.33316 29.4518 7.40608 29.4836 7.479 29.5198C8.20821 29.8669 8.95565 30.037 9.75777 29.817C10.4437 29.6287 11.1866 29.1002 11.5238 28.4652C11.8861 27.7825 12.0684 26.9546 11.8223 26.197C11.5967 25.503 11.1501 24.7659 10.4642 24.4392C9.83069 24.1376 9.18808 23.8631 8.49306 23.7565C8.04186 23.6862 7.5656 23.6091 7.10301 23.6114C6.64042 23.6136 6.16871 23.6908 5.7198 23.7633C5.04984 23.8722 4.41178 24.1421 3.80563 24.4347C3.19948 24.7273 2.64346 25.1605 2.16036 25.6187C1.91881 25.8477 1.72056 26.1063 1.51774 26.3694C1.29443 26.6575 1.07338 26.9365 0.900198 27.2563C0.574334 27.8573 0.28493 28.5309 0.164156 29.2091C0.0433808 29.8873 -0.0500487 30.5745 0.031987 31.2663C0.0866774 31.7086 0.129974 32.1622 0.24847 32.5954C0.366966 33.0286 0.569777 33.48 0.758914 33.8928C1.31493 35.1017 2.34494 36.1405 3.48204 36.8209C3.87171 37.0546 4.3024 37.2179 4.72169 37.388C4.95185 37.481 5.18656 37.5604 5.42811 37.6148C6.08896 37.7622 6.8136 37.8643 7.49724 37.8053C8.18087 37.7463 8.84627 37.6602 9.47749 37.4152C9.89222 37.2542 10.3297 37.0841 10.7217 36.8572C11.1136 36.6304 11.4691 36.3401 11.8178 36.0611C12.8774 35.2083 13.6567 33.8996 14.0145 32.5977C14.8736 29.4768 13.4038 25.9113 10.4642 24.4415C9.75094 24.0854 8.97388 23.9289 8.18542 24.1444C7.49951 24.3326 6.75664 24.8611 6.41938 25.4962C6.05705 26.1789 5.87475 27.0068 6.12086 27.7643C6.34874 28.4674 6.7931 29.1796 7.479 29.5221V29.5198Z" fill="#543367"/>
<path d="M7.45616 51.1624C8.37223 50.0669 9.39767 49.0712 10.5302 48.1957L9.93546 48.6538C11.3346 47.5833 12.8728 46.7237 14.4976 46.0409L13.7957 46.3358C16.2704 45.3038 18.8819 44.7232 21.4638 44.0336C22.8151 43.6707 24.114 43.2307 25.4015 42.6864C26.6024 42.1761 27.6825 41.4865 28.6624 40.6224C29.2298 40.1211 29.6947 39.5269 30.1413 38.919C30.6404 38.2409 30.9867 37.472 31.1782 36.6532C31.5541 35.0315 31.5496 33.2895 31.0118 31.7041C30.0388 28.8349 27.9195 26.6054 25.6544 24.6707C24.6404 23.8042 23.5898 22.9786 22.569 22.119C21.6142 21.3161 20.7277 20.4655 19.88 19.5515C19.5701 19.2181 19.2784 18.8711 19.0004 18.5127L19.4607 19.1047C18.1687 17.4308 17.2344 15.5369 16.4094 13.6022L16.7057 14.3008C16.6669 14.2101 16.6305 14.1216 16.5917 14.0309C16.5006 13.6498 16.3251 13.3187 16.0654 13.0352C15.858 12.7176 15.5823 12.4659 15.2404 12.2821C14.6092 11.9147 13.6818 11.7605 12.9753 11.9873C12.2689 12.2141 11.5785 12.6564 11.2184 13.3323C10.8584 14.0082 10.6259 14.8791 10.9222 15.5868C11.6514 17.3197 12.3965 19.0525 13.3992 20.6493C14.2902 22.0668 15.3703 23.3824 16.5507 24.5731C18.2051 26.2379 20.133 27.6101 21.8967 29.1525C22.8948 30.0257 23.8587 30.9511 24.6723 31.999L24.212 31.407C24.6973 32.0398 25.1257 32.7157 25.4425 33.4483L25.1462 32.7497C25.3764 33.2918 25.5405 33.8543 25.6202 34.4372L25.5154 33.6592C25.5861 34.2013 25.5838 34.7434 25.5131 35.2855L25.618 34.5075C25.5541 34.9611 25.4425 35.4057 25.2944 35.8389L25.5906 35.1403C25.406 35.476 25.1987 35.7958 24.9639 36.102L25.4243 35.51C25.0414 35.9999 24.5993 36.4354 24.1094 36.8142L24.7042 36.356C24.0114 36.8845 23.2389 37.2973 22.4368 37.6353L23.1387 37.3404C20.926 38.2658 18.5424 38.7126 16.2385 39.35C13.3399 40.1506 10.4459 41.2257 7.94154 42.9087C6.21651 44.0677 4.63733 45.4376 3.30425 47.0298C2.7938 47.64 2.44287 48.2773 2.44287 49.0984C2.44287 49.8151 2.76418 50.6725 3.30425 51.1669C3.84431 51.6614 4.60087 52.0583 5.38248 52.0243C6.1208 51.9902 6.96851 51.7544 7.46072 51.1669L7.45616 51.1624Z" fill="#543367"/>
<path d="M12.3213 88.591C12.5264 88.6159 12.7269 88.6771 12.9206 88.7747C13.1143 88.8745 13.2898 89.0038 13.447 89.1625C13.6042 89.3236 13.7296 89.5186 13.8253 89.7477C13.921 89.9768 13.9666 90.2354 13.9666 90.5234C13.9666 90.8682 13.9073 91.1857 13.7865 91.4783C13.6658 91.7709 13.4857 92.0204 13.2419 92.229C12.9981 92.4377 12.6904 92.601 12.3213 92.7144C11.9498 92.8301 11.5169 92.8868 11.0224 92.8868H7.96655V84.5854H11.011C11.861 84.5854 12.5059 84.785 12.9479 85.182C13.39 85.5789 13.6088 86.0983 13.6088 86.7402C13.6088 86.9783 13.57 87.1938 13.4903 87.3866C13.4128 87.5794 13.3103 87.7495 13.1872 87.8969C13.0642 88.0443 12.9252 88.1691 12.7725 88.2734C12.6198 88.3755 12.4694 88.4481 12.3213 88.4889V88.5864V88.591ZM11.0224 88.2349C11.2708 88.2349 11.4986 88.2031 11.7083 88.1373C11.9179 88.0716 12.1048 87.974 12.2643 87.847C12.4261 87.72 12.5514 87.5612 12.6426 87.373C12.7337 87.1847 12.7793 86.9624 12.7793 86.7084C12.7793 86.248 12.6198 85.9055 12.3031 85.681C11.9863 85.4564 11.5556 85.343 11.011 85.343H8.79602V88.2371H11.0224V88.2349ZM11.0087 92.1383C11.7015 92.1383 12.2301 92 12.5925 91.7187C12.9548 91.4397 13.1371 91.0405 13.1371 90.5234C13.1371 90.2354 13.0847 89.9927 12.9821 89.7908C12.8796 89.5889 12.7337 89.4279 12.5492 89.3054C12.3623 89.1829 12.139 89.0945 11.8746 89.0401C11.6103 88.9856 11.3186 88.9607 10.995 88.9607H8.79375V92.1383H11.0087Z" fill="#7E003F"/>
<path d="M17.3823 84.5898H18.2369V92.1155H22.2703V92.8912H17.3823V84.5898Z" fill="#7E003F"/>
<path d="M28.4685 93.0001C27.8328 93.0001 27.2859 92.8935 26.8301 92.6803C26.3744 92.4671 25.9915 92.17 25.6862 91.7867C25.3808 91.4056 25.1552 90.9543 25.0117 90.4326C24.8681 89.9109 24.7952 89.3462 24.7952 88.7383C24.7952 88.1304 24.8681 87.5657 25.0117 87.0463C25.1552 86.5269 25.3808 86.0733 25.6862 85.6922C25.9915 85.3112 26.3721 85.014 26.8301 84.7986C27.2881 84.5854 27.835 84.4788 28.4685 84.4788C29.102 84.4788 29.6421 84.5854 30.107 84.7986C30.5718 85.0118 30.957 85.3089 31.2578 85.6922C31.5586 86.0733 31.7842 86.5269 31.9323 87.0463C32.0804 87.5657 32.1556 88.1327 32.1556 88.7383C32.1556 89.3439 32.0804 89.9109 31.9323 90.4326C31.7842 90.9543 31.5586 91.4056 31.2578 91.7867C30.957 92.1677 30.5718 92.4671 30.107 92.6803C29.6421 92.8935 29.0952 93.0001 28.4685 93.0001ZM28.4685 92.3106C28.9471 92.3106 29.3641 92.2289 29.7173 92.0634C30.0705 91.8978 30.3668 91.6642 30.6015 91.3557C30.8362 91.0473 31.0117 90.673 31.1279 90.2285C31.2441 89.7839 31.3011 89.2895 31.3011 88.7383C31.3011 88.1871 31.2441 87.6927 31.1279 87.2481C31.0117 86.8059 30.8362 86.4294 30.6015 86.1209C30.3668 85.8124 30.0705 85.5765 29.7173 85.4132C29.3618 85.2499 28.9448 85.166 28.4685 85.166C27.9923 85.166 27.5707 85.2477 27.2129 85.4132C26.8552 85.5765 26.5567 85.8124 26.3219 86.1209C26.0872 86.4294 25.9118 86.8036 25.7955 87.2481C25.6793 87.6927 25.6224 88.1894 25.6224 88.7383C25.6224 89.2872 25.6793 89.7839 25.7955 90.2285C25.9118 90.673 26.0872 91.0473 26.3219 91.3557C26.5567 91.6642 26.8552 91.9001 27.2129 92.0634C27.5707 92.2267 27.99 92.3106 28.4685 92.3106Z" fill="#7E003F"/>
<path d="M37.5997 93.0001C37.3103 93.0001 37.0505 92.9888 36.8203 92.9684C36.5902 92.948 36.3805 92.9162 36.1959 92.8754C36.0114 92.8345 35.8382 92.7869 35.6832 92.7347C35.526 92.6826 35.3824 92.6168 35.2502 92.5442C35.2821 92.4285 35.3209 92.3151 35.3619 92.1995C35.4029 92.0838 35.4394 91.9727 35.4736 91.8661C35.7219 91.9817 36.0091 92.0747 36.3395 92.1496C36.6699 92.2244 37.0528 92.2607 37.4903 92.2607C37.7956 92.2607 38.0805 92.2312 38.3448 92.1745C38.6092 92.1178 38.8347 92.0248 39.0193 91.8978C39.2062 91.7708 39.352 91.6075 39.4591 91.4124C39.5662 91.2174 39.6209 90.9815 39.6209 90.7093C39.6209 90.4371 39.5662 90.2126 39.4546 90.0311C39.3429 89.8497 39.1925 89.6955 39.0034 89.5639C38.8142 89.4324 38.5955 89.3235 38.3471 89.2373C38.0987 89.1511 37.8389 89.0626 37.5678 88.9719C37.3125 88.8903 37.0459 88.7882 36.7702 88.6703C36.4945 88.5523 36.2415 88.4026 36.0159 88.2257C35.788 88.0488 35.6035 87.8311 35.4599 87.5725C35.3163 87.3139 35.2434 86.9987 35.2434 86.6312C35.2434 86.3273 35.2958 86.0415 35.3984 85.7761C35.5009 85.5108 35.665 85.2817 35.886 85.0934C36.1093 84.9052 36.3919 84.7555 36.7337 84.6443C37.0755 84.5332 37.4903 84.4788 37.9779 84.4788C38.3744 84.4788 38.7368 84.5151 39.0672 84.5831C39.3976 84.6534 39.703 84.7577 39.9832 84.8984C39.9491 85.014 39.9103 85.1274 39.8648 85.2431C39.8192 85.3588 39.7804 85.4699 39.7463 85.5765C39.507 85.4609 39.2335 85.3724 38.9305 85.3112C38.6274 85.2499 38.3084 85.2182 37.9779 85.2182C37.2943 85.2182 36.8021 85.3497 36.5058 85.6128C36.2096 85.8759 36.0592 86.2116 36.0592 86.6221C36.0592 86.8762 36.1116 87.0894 36.2142 87.2618C36.3167 87.4341 36.4557 87.5816 36.6289 87.7063C36.8021 87.8288 37.0072 87.9354 37.2419 88.0261C37.4766 88.1168 37.7273 88.2076 37.9893 88.296C38.2856 88.3936 38.5818 88.5024 38.8735 88.6226C39.1652 88.7428 39.4272 88.8925 39.6597 89.0717C39.8898 89.2532 40.079 89.4754 40.2225 89.7431C40.3661 90.0107 40.439 90.3351 40.439 90.7229C40.439 91.1108 40.3684 91.4442 40.2294 91.7254C40.0881 92.0089 39.8944 92.2448 39.6414 92.4331C39.3885 92.6213 39.09 92.7642 38.7436 92.8572C38.3972 92.9525 38.0167 92.9978 37.6042 92.9978L37.5997 93.0001Z" fill="#7E003F"/>
<path d="M45.9515 93.0001C45.6621 93.0001 45.4023 92.9888 45.1721 92.9684C44.942 92.948 44.7323 92.9162 44.5477 92.8754C44.3632 92.8345 44.19 92.7869 44.035 92.7347C43.8778 92.6826 43.7342 92.6168 43.6021 92.5442C43.634 92.4285 43.6727 92.3151 43.7137 92.1995C43.7547 92.0838 43.7912 91.9727 43.8254 91.8661C44.0738 91.9817 44.3609 92.0747 44.6913 92.1496C45.0217 92.2244 45.4046 92.2607 45.8421 92.2607C46.1474 92.2607 46.4323 92.2312 46.6966 92.1745C46.961 92.1178 47.1866 92.0248 47.3711 91.8978C47.558 91.7708 47.7038 91.6075 47.8109 91.4124C47.918 91.2174 47.9727 90.9815 47.9727 90.7093C47.9727 90.4371 47.918 90.2126 47.8064 90.0311C47.6947 89.8497 47.5443 89.6955 47.3552 89.5639C47.166 89.4324 46.9473 89.3235 46.6989 89.2373C46.4505 89.1511 46.1907 89.0626 45.9196 88.9719C45.6643 88.8903 45.3977 88.7882 45.122 88.6703C44.8463 88.5523 44.5933 88.4026 44.3677 88.2257C44.1398 88.0488 43.9553 87.8311 43.8117 87.5725C43.6681 87.3139 43.5952 86.9987 43.5952 86.6312C43.5952 86.3273 43.6476 86.0415 43.7502 85.7761C43.8527 85.5108 44.0168 85.2817 44.2378 85.0934C44.4611 84.9052 44.7437 84.7555 45.0855 84.6443C45.4273 84.5332 45.8421 84.4788 46.3297 84.4788C46.7262 84.4788 47.0886 84.5151 47.419 84.5831C47.7494 84.6534 48.0548 84.7577 48.3351 84.8984C48.3009 85.014 48.2621 85.1274 48.2166 85.2431C48.171 85.3588 48.1322 85.4699 48.0981 85.5765C47.8588 85.4609 47.5853 85.3724 47.2823 85.3112C46.9792 85.2499 46.6602 85.2182 46.3297 85.2182C45.6461 85.2182 45.1539 85.3497 44.8577 85.6128C44.5614 85.8759 44.411 86.2116 44.411 86.6221C44.411 86.8762 44.4634 87.0894 44.566 87.2618C44.6685 87.4341 44.8075 87.5816 44.9807 87.7063C45.1539 87.8288 45.359 87.9354 45.5937 88.0261C45.8284 88.1168 46.0791 88.2076 46.3411 88.296C46.6374 88.3936 46.9336 88.5024 47.2253 88.6226C47.517 88.7428 47.779 88.8925 48.0115 89.0717C48.2416 89.2532 48.4308 89.4754 48.5743 89.7431C48.7179 90.0107 48.7908 90.3351 48.7908 90.7229C48.7908 91.1108 48.7202 91.4442 48.5812 91.7254C48.4399 92.0089 48.2462 92.2448 47.9932 92.4331C47.7403 92.6213 47.4418 92.7642 47.0954 92.8572C46.749 92.9525 46.3685 92.9978 45.956 92.9978L45.9515 93.0001Z" fill="#7E003F"/>
<path d="M55.3787 93.0001C54.7429 93.0001 54.196 92.8935 53.7403 92.6803C53.2845 92.4671 52.9017 92.17 52.5963 91.7867C52.291 91.4056 52.0654 90.9543 51.9218 90.4326C51.7782 89.9109 51.7053 89.3462 51.7053 88.7383C51.7053 88.1304 51.7782 87.5657 51.9218 87.0463C52.0654 86.5269 52.291 86.0733 52.5963 85.6922C52.9017 85.3112 53.2822 85.014 53.7403 84.7986C54.1983 84.5854 54.7452 84.4788 55.3787 84.4788C56.0122 84.4788 56.5523 84.5854 57.0171 84.7986C57.482 85.0118 57.8671 85.3089 58.1679 85.6922C58.4687 86.0733 58.6943 86.5269 58.8424 87.0463C58.9905 87.5657 59.0658 88.1327 59.0658 88.7383C59.0658 89.3439 58.9905 89.9109 58.8424 90.4326C58.6943 90.9543 58.4687 91.4056 58.1679 91.7867C57.8671 92.1677 57.482 92.4671 57.0171 92.6803C56.5523 92.8935 56.0054 93.0001 55.3787 93.0001ZM55.3787 92.3106C55.8572 92.3106 56.2743 92.2289 56.6275 92.0634C56.9807 91.8978 57.2769 91.6642 57.5116 91.3557C57.7463 91.0473 57.9218 90.673 58.038 90.2285C58.1542 89.7839 58.2112 89.2895 58.2112 88.7383C58.2112 88.1871 58.1542 87.6927 58.038 87.2481C57.9218 86.8059 57.7463 86.4294 57.5116 86.1209C57.2769 85.8124 56.9807 85.5765 56.6275 85.4132C56.2743 85.2499 55.855 85.166 55.3787 85.166C54.9024 85.166 54.4809 85.2477 54.1231 85.4132C53.7653 85.5765 53.4668 85.8124 53.2321 86.1209C52.9974 86.4294 52.8219 86.8036 52.7057 87.2481C52.5895 87.6927 52.5325 88.1894 52.5325 88.7383C52.5325 89.2872 52.5895 89.7839 52.7057 90.2285C52.8219 90.673 52.9974 91.0473 53.2321 91.3557C53.4668 91.6642 53.7653 91.9001 54.1231 92.0634C54.4809 92.2267 54.9002 92.3106 55.3787 92.3106Z" fill="#7E003F"/>
<path d="M65.8472 91.5235L64.0037 87.4976C63.8874 87.2435 63.7758 86.9895 63.6687 86.74C63.5616 86.4905 63.4545 86.1957 63.3474 85.86L63.2357 85.8713C63.2767 86.2569 63.2995 86.6266 63.3041 86.9804C63.3086 87.3343 63.3109 87.6133 63.3109 87.8174V92.8912H62.4814V84.5898H63.5092L65.5373 89.0603C65.6034 89.2009 65.674 89.3552 65.7469 89.5276C65.8221 89.6999 65.8928 89.8723 65.9634 90.0447C66.034 90.2171 66.0979 90.3781 66.1548 90.5301C66.2118 90.682 66.2574 90.8113 66.2915 90.9179C66.3235 90.8272 66.3736 90.707 66.4397 90.555C66.5058 90.403 66.5787 90.2397 66.6562 90.0628C66.7336 89.8859 66.8111 89.709 66.8863 89.5344C66.9592 89.3574 67.0299 89.2009 67.096 89.0603L69.1241 84.5898H70.1518V92.8912H69.3109V87.8174C69.3109 87.6133 69.3155 87.3343 69.3223 86.985C69.3291 86.6357 69.3588 86.2683 69.4089 85.8827L69.3109 85.8577C69.1947 86.1934 69.083 86.4883 68.9714 86.7378C68.8597 86.9895 68.7458 87.2413 68.6318 87.4953L66.7883 91.5212H65.8472V91.5235Z" fill="#7E003F"/>
</g>
<defs>
<clipPath id="clip0_239_2224">
<rect width="78" height="93" fill="white"/>
</clipPath>
</defs>
</svg>
