<svg width="200" height="140" viewBox="0 0 200 140" fill="none" xmlns="http://www.w3.org/2000/svg">
<rect width="199.175" height="140" rx="5" fill="#F49860"/>
<path d="M64.4854 29.8042L77.2187 36.5195L88.5847 34.5911C92.4215 33.9401 96.3535 35.0164 99.2907 37.5216" stroke="#20201F" stroke-width="7" stroke-linecap="round" stroke-linejoin="round"/>
<path d="M126.772 65.0454L108.768 77.5746C104.811 80.329 99.5225 80.3784 95.5119 77.6991L64.4854 56.9733" stroke="#20201F" stroke-width="7" stroke-linecap="round" stroke-linejoin="round"/>
<path d="M139.074 56.8402L126.336 65.3701L106.571 49.7313L99.3007 54.9165C96.3445 57.0249 92.2148 56.4568 89.9653 53.6324C87.7209 50.8144 88.1539 46.7614 90.9452 44.46L98.5152 38.2185C102.143 35.2271 106.86 33.8154 111.575 34.3097L123.373 35.5467L139.074 27.23" stroke="#20201F" stroke-width="7" stroke-linecap="round" stroke-linejoin="round"/>
<path d="M106.573 49.7729C111.329 53.9251 118.074 51.8068 120.582 48.4172" stroke="#20201F" stroke-width="7" stroke-linecap="round" stroke-linejoin="round"/>
<path d="M45.1369 110.2C44.0036 110.2 43.0302 110.007 42.2169 109.62C41.4169 109.233 40.6902 108.653 40.0369 107.88L41.8369 106.08C42.2502 106.627 42.7302 107.053 43.2769 107.36C43.8236 107.653 44.4902 107.8 45.2769 107.8C45.9836 107.8 46.5436 107.66 46.9569 107.38C47.3836 107.1 47.5969 106.713 47.5969 106.22C47.5969 105.793 47.4769 105.447 47.2369 105.18C46.9969 104.913 46.6769 104.687 46.2769 104.5C45.8902 104.313 45.4569 104.147 44.9769 104C44.5102 103.84 44.0369 103.66 43.5569 103.46C43.0902 103.26 42.6569 103.013 42.2569 102.72C41.8702 102.413 41.5569 102.027 41.3169 101.56C41.0769 101.08 40.9569 100.48 40.9569 99.76C40.9569 98.9067 41.1636 98.18 41.5769 97.58C41.9902 96.98 42.5569 96.52 43.2769 96.2C43.9969 95.88 44.8102 95.72 45.7169 95.72C46.6769 95.72 47.5436 95.9 48.3169 96.26C49.0902 96.62 49.7236 97.0867 50.2169 97.66L48.4169 99.46C48.0036 99.0067 47.5769 98.6733 47.1369 98.46C46.7102 98.2467 46.2236 98.14 45.6769 98.14C45.0502 98.14 44.5569 98.26 44.1969 98.5C43.8369 98.74 43.6569 99.0867 43.6569 99.54C43.6569 99.9267 43.7769 100.24 44.0169 100.48C44.2569 100.72 44.5702 100.927 44.9569 101.1C45.3569 101.273 45.7902 101.44 46.2569 101.6C46.7369 101.76 47.2102 101.94 47.6769 102.14C48.1569 102.34 48.5902 102.6 48.9769 102.92C49.3769 103.24 49.6969 103.653 49.9369 104.16C50.1769 104.653 50.2969 105.267 50.2969 106C50.2969 107.307 49.8369 108.333 48.9169 109.08C47.9969 109.827 46.7369 110.2 45.1369 110.2ZM53.5836 110V96.32H56.2036V110H53.5836ZM51.3236 102.64V100.34H58.4636V102.64H51.3236ZM63.7427 110.2C62.8627 110.2 62.0694 109.98 61.3627 109.54C60.656 109.1 60.1027 108.5 59.7027 107.74C59.3027 106.98 59.1027 106.127 59.1027 105.18C59.1027 104.22 59.3027 103.36 59.7027 102.6C60.1027 101.84 60.656 101.24 61.3627 100.8C62.0694 100.36 62.8627 100.14 63.7427 100.14C64.436 100.14 65.056 100.28 65.6027 100.56C66.1494 100.84 66.5827 101.233 66.9027 101.74C67.236 102.233 67.416 102.793 67.4427 103.42V106.9C67.416 107.54 67.236 108.107 66.9027 108.6C66.5827 109.093 66.1494 109.487 65.6027 109.78C65.056 110.06 64.436 110.2 63.7427 110.2ZM64.2227 107.78C64.956 107.78 65.5494 107.54 66.0027 107.06C66.456 106.567 66.6827 105.933 66.6827 105.16C66.6827 104.653 66.576 104.207 66.3627 103.82C66.1627 103.42 65.876 103.113 65.5027 102.9C65.1427 102.673 64.716 102.56 64.2227 102.56C63.7427 102.56 63.316 102.673 62.9427 102.9C62.5827 103.113 62.296 103.42 62.0827 103.82C61.8827 104.207 61.7827 104.653 61.7827 105.16C61.7827 105.68 61.8827 106.14 62.0827 106.54C62.296 106.927 62.5827 107.233 62.9427 107.46C63.316 107.673 63.7427 107.78 64.2227 107.78ZM66.5427 110V107.4L66.9627 105.04L66.5427 102.72V100.34H69.1427V110H66.5427ZM75.5005 114.28C74.4738 114.28 73.5672 114.093 72.7805 113.72C71.9938 113.36 71.3672 112.847 70.9005 112.18L72.5605 110.52C72.9338 110.96 73.3472 111.293 73.8005 111.52C74.2672 111.76 74.8272 111.88 75.4805 111.88C76.2938 111.88 76.9338 111.673 77.4005 111.26C77.8805 110.847 78.1205 110.273 78.1205 109.54V107.12L78.5605 105L78.1405 102.88V100.34H80.7405V109.5C80.7405 110.46 80.5138 111.293 80.0605 112C79.6205 112.72 79.0072 113.28 78.2205 113.68C77.4338 114.08 76.5272 114.28 75.5005 114.28ZM75.3805 109.74C74.5138 109.74 73.7338 109.533 73.0405 109.12C72.3472 108.693 71.8005 108.113 71.4005 107.38C71.0138 106.647 70.8205 105.827 70.8205 104.92C70.8205 104.013 71.0138 103.2 71.4005 102.48C71.8005 101.76 72.3472 101.193 73.0405 100.78C73.7338 100.353 74.5138 100.14 75.3805 100.14C76.1005 100.14 76.7338 100.28 77.2805 100.56C77.8405 100.84 78.2805 101.227 78.6005 101.72C78.9205 102.2 79.0938 102.767 79.1205 103.42V106.46C79.0938 107.1 78.9138 107.673 78.5805 108.18C78.2605 108.673 77.8205 109.06 77.2605 109.34C76.7138 109.607 76.0872 109.74 75.3805 109.74ZM75.9005 107.36C76.3805 107.36 76.7938 107.26 77.1405 107.06C77.5005 106.847 77.7805 106.56 77.9805 106.2C78.1805 105.827 78.2805 105.407 78.2805 104.94C78.2805 104.46 78.1805 104.04 77.9805 103.68C77.7805 103.32 77.5005 103.04 77.1405 102.84C76.7938 102.627 76.3805 102.52 75.9005 102.52C75.4205 102.52 75.0005 102.627 74.6405 102.84C74.2805 103.04 74.0005 103.327 73.8005 103.7C73.6005 104.06 73.5005 104.473 73.5005 104.94C73.5005 105.393 73.6005 105.807 73.8005 106.18C74.0005 106.54 74.2805 106.827 74.6405 107.04C75.0005 107.253 75.4205 107.36 75.9005 107.36ZM87.6625 110.2C86.6492 110.2 85.7492 109.987 84.9625 109.56C84.1759 109.12 83.5492 108.52 83.0825 107.76C82.6292 107 82.4025 106.133 82.4025 105.16C82.4025 104.2 82.6225 103.347 83.0625 102.6C83.5159 101.84 84.1292 101.24 84.9025 100.8C85.6759 100.347 86.5359 100.12 87.4825 100.12C88.4159 100.12 89.2359 100.333 89.9425 100.76C90.6625 101.173 91.2225 101.747 91.6225 102.48C92.0359 103.2 92.2425 104.02 92.2425 104.94C92.2425 105.113 92.2292 105.293 92.2025 105.48C92.1892 105.653 92.1559 105.853 92.1025 106.08L83.9825 106.1V104.14L90.8825 104.12L89.8225 104.94C89.7959 104.367 89.6892 103.887 89.5025 103.5C89.3292 103.113 89.0692 102.82 88.7225 102.62C88.3892 102.407 87.9759 102.3 87.4825 102.3C86.9625 102.3 86.5092 102.42 86.1225 102.66C85.7359 102.887 85.4359 103.213 85.2225 103.64C85.0225 104.053 84.9225 104.547 84.9225 105.12C84.9225 105.707 85.0292 106.22 85.2425 106.66C85.4692 107.087 85.7892 107.42 86.2025 107.66C86.6159 107.887 87.0959 108 87.6425 108C88.1359 108 88.5825 107.92 88.9825 107.76C89.3825 107.587 89.7292 107.333 90.0225 107L91.5625 108.54C91.0959 109.087 90.5225 109.5 89.8425 109.78C89.1759 110.06 88.4492 110.2 87.6625 110.2ZM98.0491 110V95.94H100.769V110H98.0491ZM100.049 104.24V101.82H107.129V104.24H100.049ZM100.049 98.34V95.94H107.469V98.34H100.049ZM113.04 110.2C112.16 110.2 111.366 109.98 110.66 109.54C109.953 109.1 109.4 108.5 109 107.74C108.6 106.98 108.4 106.127 108.4 105.18C108.4 104.22 108.6 103.36 109 102.6C109.4 101.84 109.953 101.24 110.66 100.8C111.366 100.36 112.16 100.14 113.04 100.14C113.733 100.14 114.353 100.28 114.9 100.56C115.446 100.84 115.88 101.233 116.2 101.74C116.533 102.233 116.713 102.793 116.74 103.42V106.9C116.713 107.54 116.533 108.107 116.2 108.6C115.88 109.093 115.446 109.487 114.9 109.78C114.353 110.06 113.733 110.2 113.04 110.2ZM113.52 107.78C114.253 107.78 114.846 107.54 115.3 107.06C115.753 106.567 115.98 105.933 115.98 105.16C115.98 104.653 115.873 104.207 115.66 103.82C115.46 103.42 115.173 103.113 114.8 102.9C114.44 102.673 114.013 102.56 113.52 102.56C113.04 102.56 112.613 102.673 112.24 102.9C111.88 103.113 111.593 103.42 111.38 103.82C111.18 104.207 111.08 104.653 111.08 105.16C111.08 105.68 111.18 106.14 111.38 106.54C111.593 106.927 111.88 107.233 112.24 107.46C112.613 107.673 113.04 107.78 113.52 107.78ZM115.84 110V107.4L116.26 105.04L115.84 102.72V100.34H118.44V110H115.84ZM125.317 110.2C124.331 110.2 123.444 109.98 122.657 109.54C121.871 109.1 121.251 108.5 120.797 107.74C120.344 106.98 120.117 106.127 120.117 105.18C120.117 104.22 120.344 103.36 120.797 102.6C121.251 101.84 121.871 101.24 122.657 100.8C123.457 100.347 124.344 100.12 125.317 100.12C126.077 100.12 126.777 100.26 127.417 100.54C128.057 100.82 128.611 101.22 129.077 101.74L127.397 103.44C127.144 103.16 126.837 102.947 126.477 102.8C126.131 102.653 125.744 102.58 125.317 102.58C124.837 102.58 124.404 102.693 124.017 102.92C123.644 103.133 123.344 103.433 123.117 103.82C122.904 104.193 122.797 104.64 122.797 105.16C122.797 105.667 122.904 106.12 123.117 106.52C123.344 106.907 123.644 107.213 124.017 107.44C124.404 107.653 124.837 107.76 125.317 107.76C125.757 107.76 126.151 107.687 126.497 107.54C126.857 107.38 127.164 107.153 127.417 106.86L129.117 108.56C128.624 109.093 128.057 109.5 127.417 109.78C126.777 110.06 126.077 110.2 125.317 110.2ZM130.601 110V100.34H133.241V110H130.601ZM131.921 98.78C131.494 98.78 131.141 98.64 130.861 98.36C130.581 98.0667 130.441 97.7067 130.441 97.28C130.441 96.8667 130.581 96.5133 130.861 96.22C131.141 95.9267 131.494 95.78 131.921 95.78C132.361 95.78 132.714 95.9267 132.981 96.22C133.261 96.5133 133.401 96.8667 133.401 97.28C133.401 97.7067 133.261 98.0667 132.981 98.36C132.714 98.64 132.361 98.78 131.921 98.78ZM135.562 110V95.54H138.182V110H135.562ZM145.123 110.2C144.11 110.2 143.21 109.987 142.423 109.56C141.637 109.12 141.01 108.52 140.543 107.76C140.09 107 139.863 106.133 139.863 105.16C139.863 104.2 140.083 103.347 140.523 102.6C140.977 101.84 141.59 101.24 142.363 100.8C143.137 100.347 143.997 100.12 144.943 100.12C145.877 100.12 146.697 100.333 147.403 100.76C148.123 101.173 148.683 101.747 149.083 102.48C149.497 103.2 149.703 104.02 149.703 104.94C149.703 105.113 149.69 105.293 149.663 105.48C149.65 105.653 149.617 105.853 149.563 106.08L141.443 106.1V104.14L148.343 104.12L147.283 104.94C147.257 104.367 147.15 103.887 146.963 103.5C146.79 103.113 146.53 102.82 146.183 102.62C145.85 102.407 145.437 102.3 144.943 102.3C144.423 102.3 143.97 102.42 143.583 102.66C143.197 102.887 142.897 103.213 142.683 103.64C142.483 104.053 142.383 104.547 142.383 105.12C142.383 105.707 142.49 106.22 142.703 106.66C142.93 107.087 143.25 107.42 143.663 107.66C144.077 107.887 144.557 108 145.103 108C145.597 108 146.043 107.92 146.443 107.76C146.843 107.587 147.19 107.333 147.483 107L149.023 108.54C148.557 109.087 147.983 109.5 147.303 109.78C146.637 110.06 145.91 110.2 145.123 110.2ZM155.75 105.1L155.35 95.54H158.15L157.75 105.1H155.75ZM156.75 110.2C156.27 110.2 155.877 110.04 155.57 109.72C155.263 109.4 155.11 109.007 155.11 108.54C155.11 108.073 155.263 107.68 155.57 107.36C155.877 107.04 156.27 106.88 156.75 106.88C157.23 106.88 157.623 107.04 157.93 107.36C158.237 107.68 158.39 108.073 158.39 108.54C158.39 109.007 158.237 109.4 157.93 109.72C157.623 110.04 157.23 110.2 156.75 110.2Z" fill="#20201F"/>
</svg>
