<svg width="760" height="405" viewBox="0 0 760 405" fill="none" xmlns="http://www.w3.org/2000/svg">
<g clip-path="url(#clip0_190_33)">
<path d="M59.5401 153.151C56.8685 153.151 56.29 149.907 56.29 129.797H0C0 175.027 13.3238 199.281 62.1947 199.281C107.815 199.281 127.35 180.649 127.35 135.13C127.35 115.615 123.794 102.91 115.2 93.1441C109.874 86.9277 99.8007 81.9002 90.0163 78.9449C80.8275 76.2783 71.945 73.9174 68.9842 71.8453C65.7341 69.7731 65.1385 65.9346 65.1385 56.7628C65.1385 48.4743 66.0233 46.1134 68.0993 46.1134C70.4646 46.1134 71.0602 48.4743 71.0602 67.701H123.777C123.811 19.8042 110.776 0 62.1947 0C22.8019 0 0 21.8763 0 63.8624C0 84.5668 5.6324 99.6322 14.8042 107.615C22.5126 114.409 32.8755 118.264 39.9884 120.32C47.1012 122.392 54.5033 124.158 58.0597 125.941C61.6161 127.708 62.2117 130.374 62.2117 140.124C62.2117 151.656 61.3268 153.134 59.5401 153.134V153.151Z" fill="#FF6E31"/>
<path d="M246.72 2.36084H158.456L126.755 196.904H191.025L191.621 171.477H198.734L199.329 196.904H278.421L246.72 2.36084ZM192.216 132.447L193.697 65.0344H196.062L197.832 132.447H192.199H192.216Z" fill="#FF6E31"/>
<path d="M347.712 148.412H359.266C389.776 148.412 406.367 121.797 406.367 76.2782C406.367 24.5429 386.526 2.36084 349.498 2.36084H282.556V196.904H347.729V148.412H347.712ZM347.712 63.2679H349.481C353.038 63.2679 353.633 67.1065 353.633 84.5498C353.633 104.354 352.748 106.426 349.788 106.426H347.712V63.2679Z" fill="#FF6E31"/>
<path d="M478.039 199.264C529.276 199.264 546.173 164.972 546.173 98.4433C546.173 31.9142 527.795 0 478.039 0C428.284 0 409.906 34.0034 409.906 98.4433C409.906 167.928 428.267 199.264 478.039 199.264ZM478.039 60.9071C480.405 60.9071 481 63.5737 481 99.0547C481 134.536 480.405 138.374 478.039 138.374C475.674 138.374 475.079 136.013 475.079 99.0547C475.079 62.096 475.674 60.9071 478.039 60.9071Z" fill="#FF6E31"/>
<path d="M687.732 196.904V143.69C687.732 125.653 682.984 113.831 662.258 107.615V107.021C682.406 100.804 687.732 84.8385 687.732 62.3678C687.732 25.7148 674.102 2.34387 621.981 2.34387H551.482V196.887H616.637V130.663H618.424C621.096 130.663 622.576 132.141 622.576 137.168V196.887H687.749L687.732 196.904ZM618.424 97.5601H616.637V63.268H618.424C621.674 63.268 622.576 64.7456 622.576 80.7112C622.576 96.6769 621.981 97.5601 618.424 97.5601Z" fill="#FF6E31"/>
<path d="M759.983 2.36084H694.827V196.904H759.983V2.36084Z" fill="#FF6E31"/>
<path d="M58.2809 283.627H58.0086C54.5373 275.084 48.3774 269.479 34.2198 269.479C12.3028 269.479 0 289.487 0 336.195C0 382.903 10.431 404.507 33.4201 404.507C50.2662 404.507 56.4091 392.771 59.6252 376.754H60.1527C59.6252 385.57 59.0807 394.368 58.2809 402.911H112.018V220.92H58.2809V283.627ZM58.2809 342.598C58.2809 355.676 58.0086 357.545 56.1369 357.545C54.2651 357.545 53.9928 355.15 53.9928 336.993C53.9928 318.837 54.2651 316.442 56.1369 316.442C57.4811 316.442 58.2809 317.767 58.2809 325.512V342.598Z" fill="#FF6E31"/>
<path d="M172.426 271.093H118.417V402.911H172.426V271.093Z" fill="#FF6E31"/>
<path d="M172.426 226.253H118.417V266.286H172.426V226.253Z" fill="#FF6E31"/>
<path d="M340.309 281.487C340.309 248.401 328.007 227.323 280.957 227.323H217.333V402.911H276.141V343.142H277.74C280.14 343.142 281.484 344.484 281.484 349.018V402.928H340.292V354.895C340.292 338.624 336.021 327.94 317.303 322.335V321.792C335.477 316.187 340.292 301.784 340.292 281.504L340.309 281.487ZM277.757 313.249H276.158V282.286H277.757C280.701 282.286 281.501 283.61 281.501 298.03C281.501 312.45 280.974 313.249 277.757 313.249Z" fill="#FF6E31"/>
<path d="M422.839 226.763C378.97 218.474 356.696 245.48 345.857 302.65C334.167 364.271 345.176 395.132 389.299 403.488C434.75 412.083 455.493 384.499 466.69 325.512C477.546 268.358 466.979 235.119 422.839 226.78V226.763ZM408.783 315.083C402.555 347.864 401.636 349.851 399.543 349.46C397.45 349.069 397.314 346.861 403.542 314.098C409.515 282.642 410.485 280.366 412.595 280.774C414.705 281.165 414.773 283.627 408.8 315.1L408.783 315.083Z" fill="#FF6E31"/>
<path d="M550.954 287.092H549.882L545.867 227.323H472.356V402.911H518.334L516.735 326.055H517.79L526.621 402.911H552.282L561.113 326.055H562.168L560.569 402.911H619.394V227.323H554.953L550.954 287.092Z" fill="#FF6E31"/>
<path d="M651.725 227.323L623.121 402.911H681.146L681.674 379.965H688.089L688.634 402.911H760.017L731.413 227.323H651.742H651.725ZM682.201 344.738L683.546 283.899H685.69L687.289 344.738H682.218H682.201Z" fill="#FF6E31"/>
</g>
<defs>
<clipPath id="clip0_190_33">
<rect width="760" height="405" fill="white"/>
</clipPath>
</defs>
</svg>
