<svg width="1194" height="1199" viewBox="0 0 1194 1199" fill="none" xmlns="http://www.w3.org/2000/svg">
<g opacity="0.1">
<line x1="194.5" y1="-1" x2="194.5" y2="1119" stroke="#23120B"/>
<line x1="434.5" y1="-1" x2="434.5" y2="1119" stroke="#23120B"/>
<line x1="674.5" y1="-1" x2="674.5" y2="1119" stroke="#23120B"/>
<line x1="914.5" y1="-1" x2="914.5" y2="1119" stroke="#23120B"/>
<line x1="1154.5" y1="-1" x2="1154.5" y2="1119" stroke="#23120B"/>
<line x1="234.5" y1="-1" x2="234.5" y2="1119" stroke="#23120B"/>
<line x1="474.5" y1="-1" x2="474.5" y2="1119" stroke="#23120B"/>
<line x1="714.5" y1="-1" x2="714.5" y2="1119" stroke="#23120B"/>
<line x1="954.5" y1="-1" x2="954.5" y2="1119" stroke="#23120B"/>
<line x1="34.5" y1="-1" x2="34.5" y2="1119" stroke="#23120B"/>
<line x1="274.5" y1="-1" x2="274.5" y2="1119" stroke="#23120B"/>
<line x1="514.5" y1="-1" x2="514.5" y2="1119" stroke="#23120B"/>
<line x1="754.5" y1="-1" x2="754.5" y2="1119" stroke="#23120B"/>
<line x1="994.5" y1="-1" x2="994.5" y2="1119" stroke="#23120B"/>
<line x1="74.5" y1="-1" x2="74.5" y2="1119" stroke="#23120B"/>
<line x1="314.5" y1="-1" x2="314.5" y2="1119" stroke="#23120B"/>
<line x1="554.5" y1="-1" x2="554.5" y2="1119" stroke="#23120B"/>
<line x1="794.5" y1="-1" x2="794.5" y2="1119" stroke="#23120B"/>
<line x1="1034.5" y1="-1" x2="1034.5" y2="1119" stroke="#23120B"/>
<line x1="114.5" y1="-1" x2="114.5" y2="1119" stroke="#23120B"/>
<line x1="354.5" y1="-1" x2="354.5" y2="1119" stroke="#23120B"/>
<line x1="594.5" y1="-1" x2="594.5" y2="1119" stroke="#23120B"/>
<line x1="834.5" y1="-1" x2="834.5" y2="1119" stroke="#23120B"/>
<line x1="1074.5" y1="-1" x2="1074.5" y2="1119" stroke="#23120B"/>
<line x1="154.5" y1="-1" x2="154.5" y2="1119" stroke="#23120B"/>
<line x1="394.5" y1="-1" x2="394.5" y2="1119" stroke="#23120B"/>
<line x1="634.5" y1="-1" x2="634.5" y2="1119" stroke="#23120B"/>
<line x1="874.5" y1="-1" x2="874.5" y2="1119" stroke="#23120B"/>
<line x1="1114.5" y1="-1" x2="1114.5" y2="1119" stroke="#23120B"/>
<line x1="1194" y1="239.5" x2="-3.1097e-08" y2="239.5" stroke="#23120B"/>
<line x1="1194" y1="479.5" x2="-3.1097e-08" y2="479.5" stroke="#23120B"/>
<line x1="1194" y1="719.5" x2="-3.1097e-08" y2="719.5" stroke="#23120B"/>
<line x1="1194" y1="959.5" x2="-3.1097e-08" y2="959.5" stroke="#23120B"/>
<line x1="1194" y1="39.5" x2="-3.1097e-08" y2="39.4999" stroke="#23120B"/>
<line x1="1194" y1="279.5" x2="-3.1097e-08" y2="279.5" stroke="#23120B"/>
<line x1="1194" y1="519.5" x2="-3.1097e-08" y2="519.5" stroke="#23120B"/>
<line x1="1194" y1="759.5" x2="-3.1097e-08" y2="759.5" stroke="#23120B"/>
<line x1="1194" y1="999.5" x2="-3.1097e-08" y2="999.5" stroke="#23120B"/>
<line x1="1194" y1="79.5" x2="-3.1097e-08" y2="79.4999" stroke="#23120B"/>
<line x1="1194" y1="319.5" x2="-3.1097e-08" y2="319.5" stroke="#23120B"/>
<line x1="1194" y1="559.5" x2="-3.1097e-08" y2="559.5" stroke="#23120B"/>
<line x1="1194" y1="799.5" x2="-3.1097e-08" y2="799.5" stroke="#23120B"/>
<line x1="1194" y1="1039.5" x2="-3.1097e-08" y2="1039.5" stroke="#23120B"/>
<line x1="1194" y1="119.5" x2="-3.1097e-08" y2="119.5" stroke="#23120B"/>
<line x1="1194" y1="359.5" x2="-3.1097e-08" y2="359.5" stroke="#23120B"/>
<line x1="1194" y1="599.5" x2="-3.1097e-08" y2="599.5" stroke="#23120B"/>
<line x1="1194" y1="839.5" x2="-3.1097e-08" y2="839.5" stroke="#23120B"/>
<line x1="1194" y1="1079.5" x2="-3.1097e-08" y2="1079.5" stroke="#23120B"/>
<line x1="1194" y1="159.5" x2="-3.1097e-08" y2="159.5" stroke="#23120B"/>
<line x1="1194" y1="399.5" x2="-3.1097e-08" y2="399.5" stroke="#23120B"/>
<line x1="1194" y1="639.5" x2="-3.1097e-08" y2="639.5" stroke="#23120B"/>
<line x1="1194" y1="879.5" x2="-3.1097e-08" y2="879.5" stroke="#23120B"/>
<line x1="1194" y1="1119.5" x2="-3.1097e-08" y2="1119.5" stroke="#23120B"/>
<line x1="1194" y1="199.5" x2="-3.1097e-08" y2="199.5" stroke="#23120B"/>
<line x1="1194" y1="439.5" x2="-3.1097e-08" y2="439.5" stroke="#23120B"/>
<line x1="1194" y1="679.5" x2="-3.1097e-08" y2="679.5" stroke="#23120B"/>
<line x1="1194" y1="919.5" x2="-3.1097e-08" y2="919.5" stroke="#23120B"/>
</g>
</svg>
