<svg width="187" height="88" viewBox="0 0 187 88" fill="none" xmlns="http://www.w3.org/2000/svg">
<path d="M59.5507 5.20883L70.4764 10.9708L80.2289 9.31616C83.521 8.75761 86.8949 9.68111 89.4151 11.8306" stroke="#20201F" stroke-width="5" stroke-linecap="round" stroke-linejoin="round"/>
<path d="M112.995 35.4472L97.5474 46.1977C94.1518 48.5611 89.614 48.6036 86.1727 46.3046L59.5507 28.521" stroke="#20201F" stroke-width="5" stroke-linecap="round" stroke-linejoin="round"/>
<path d="M123.551 28.4068L112.62 35.7258L95.6615 22.3071L89.4234 26.7561C86.8869 28.5652 83.3435 28.0778 81.4132 25.6543C79.4874 23.2364 79.859 19.7587 82.254 17.784L88.7494 12.4286C91.8626 9.86181 95.9095 8.6505 99.9549 9.07468L110.078 10.1361L123.551 3" stroke="#20201F" stroke-width="5" stroke-linecap="round" stroke-linejoin="round"/>
<path d="M95.6637 22.3427C99.7445 25.9054 105.532 24.0879 107.683 21.1795" stroke="#20201F" stroke-width="5" stroke-linecap="round" stroke-linejoin="round"/>
<path d="M39.0493 71.2C37.916 71.2 36.9426 71.0067 36.1293 70.62C35.3293 70.2333 34.6026 69.6533 33.9493 68.88L35.7493 67.08C36.1626 67.6267 36.6426 68.0533 37.1893 68.36C37.736 68.6533 38.4026 68.8 39.1893 68.8C39.896 68.8 40.456 68.66 40.8693 68.38C41.296 68.1 41.5093 67.7133 41.5093 67.22C41.5093 66.7933 41.3893 66.4467 41.1493 66.18C40.9093 65.9133 40.5893 65.6867 40.1893 65.5C39.8026 65.3133 39.3693 65.1467 38.8893 65C38.4226 64.84 37.9493 64.66 37.4693 64.46C37.0026 64.26 36.5693 64.0133 36.1693 63.72C35.7826 63.4133 35.4693 63.0267 35.2293 62.56C34.9893 62.08 34.8693 61.48 34.8693 60.76C34.8693 59.9067 35.076 59.18 35.4893 58.58C35.9026 57.98 36.4693 57.52 37.1893 57.2C37.9093 56.88 38.7226 56.72 39.6293 56.72C40.5893 56.72 41.456 56.9 42.2293 57.26C43.0026 57.62 43.636 58.0867 44.1293 58.66L42.3293 60.46C41.916 60.0067 41.4893 59.6733 41.0493 59.46C40.6226 59.2467 40.136 59.14 39.5893 59.14C38.9626 59.14 38.4693 59.26 38.1093 59.5C37.7493 59.74 37.5693 60.0867 37.5693 60.54C37.5693 60.9267 37.6893 61.24 37.9293 61.48C38.1693 61.72 38.4826 61.9267 38.8693 62.1C39.2693 62.2733 39.7026 62.44 40.1693 62.6C40.6493 62.76 41.1226 62.94 41.5893 63.14C42.0693 63.34 42.5026 63.6 42.8893 63.92C43.2893 64.24 43.6093 64.6533 43.8493 65.16C44.0893 65.6533 44.2093 66.2667 44.2093 67C44.2093 68.3067 43.7493 69.3333 42.8293 70.08C41.9093 70.8267 40.6493 71.2 39.0493 71.2ZM47.496 71V57.32H50.116V71H47.496ZM45.236 63.64V61.34H52.376V63.64H45.236ZM57.6551 71.2C56.7751 71.2 55.9817 70.98 55.2751 70.54C54.5684 70.1 54.0151 69.5 53.6151 68.74C53.2151 67.98 53.0151 67.1267 53.0151 66.18C53.0151 65.22 53.2151 64.36 53.6151 63.6C54.0151 62.84 54.5684 62.24 55.2751 61.8C55.9817 61.36 56.7751 61.14 57.6551 61.14C58.3484 61.14 58.9684 61.28 59.5151 61.56C60.0617 61.84 60.4951 62.2333 60.8151 62.74C61.1484 63.2333 61.3284 63.7933 61.3551 64.42V67.9C61.3284 68.54 61.1484 69.1067 60.8151 69.6C60.4951 70.0933 60.0617 70.4867 59.5151 70.78C58.9684 71.06 58.3484 71.2 57.6551 71.2ZM58.1351 68.78C58.8684 68.78 59.4617 68.54 59.9151 68.06C60.3684 67.5667 60.5951 66.9333 60.5951 66.16C60.5951 65.6533 60.4884 65.2067 60.2751 64.82C60.0751 64.42 59.7884 64.1133 59.4151 63.9C59.0551 63.6733 58.6284 63.56 58.1351 63.56C57.6551 63.56 57.2284 63.6733 56.8551 63.9C56.4951 64.1133 56.2084 64.42 55.9951 64.82C55.7951 65.2067 55.6951 65.6533 55.6951 66.16C55.6951 66.68 55.7951 67.14 55.9951 67.54C56.2084 67.9267 56.4951 68.2333 56.8551 68.46C57.2284 68.6733 57.6551 68.78 58.1351 68.78ZM60.4551 71V68.4L60.8751 66.04L60.4551 63.72V61.34H63.0551V71H60.4551ZM69.4129 75.28C68.3862 75.28 67.4796 75.0933 66.6929 74.72C65.9062 74.36 65.2796 73.8467 64.8129 73.18L66.4729 71.52C66.8462 71.96 67.2596 72.2933 67.7129 72.52C68.1796 72.76 68.7396 72.88 69.3929 72.88C70.2062 72.88 70.8462 72.6733 71.3129 72.26C71.7929 71.8467 72.0329 71.2733 72.0329 70.54V68.12L72.4729 66L72.0529 63.88V61.34H74.6529V70.5C74.6529 71.46 74.4262 72.2933 73.9729 73C73.5329 73.72 72.9196 74.28 72.1329 74.68C71.3462 75.08 70.4396 75.28 69.4129 75.28ZM69.2929 70.74C68.4262 70.74 67.6462 70.5333 66.9529 70.12C66.2596 69.6933 65.7129 69.1133 65.3129 68.38C64.9262 67.6467 64.7329 66.8267 64.7329 65.92C64.7329 65.0133 64.9262 64.2 65.3129 63.48C65.7129 62.76 66.2596 62.1933 66.9529 61.78C67.6462 61.3533 68.4262 61.14 69.2929 61.14C70.0129 61.14 70.6462 61.28 71.1929 61.56C71.7529 61.84 72.1929 62.2267 72.5129 62.72C72.8329 63.2 73.0062 63.7667 73.0329 64.42V67.46C73.0062 68.1 72.8262 68.6733 72.4929 69.18C72.1729 69.6733 71.7329 70.06 71.1729 70.34C70.6262 70.6067 69.9996 70.74 69.2929 70.74ZM69.8129 68.36C70.2929 68.36 70.7062 68.26 71.0529 68.06C71.4129 67.8467 71.6929 67.56 71.8929 67.2C72.0929 66.8267 72.1929 66.4067 72.1929 65.94C72.1929 65.46 72.0929 65.04 71.8929 64.68C71.6929 64.32 71.4129 64.04 71.0529 63.84C70.7062 63.6267 70.2929 63.52 69.8129 63.52C69.3329 63.52 68.9129 63.6267 68.5529 63.84C68.1929 64.04 67.9129 64.3267 67.7129 64.7C67.5129 65.06 67.4129 65.4733 67.4129 65.94C67.4129 66.3933 67.5129 66.8067 67.7129 67.18C67.9129 67.54 68.1929 67.8267 68.5529 68.04C68.9129 68.2533 69.3329 68.36 69.8129 68.36ZM81.5749 71.2C80.5616 71.2 79.6616 70.9867 78.8749 70.56C78.0883 70.12 77.4616 69.52 76.9949 68.76C76.5416 68 76.3149 67.1333 76.3149 66.16C76.3149 65.2 76.5349 64.3467 76.9749 63.6C77.4283 62.84 78.0416 62.24 78.8149 61.8C79.5883 61.3467 80.4483 61.12 81.3949 61.12C82.3283 61.12 83.1483 61.3333 83.8549 61.76C84.5749 62.1733 85.1349 62.7467 85.5349 63.48C85.9483 64.2 86.1549 65.02 86.1549 65.94C86.1549 66.1133 86.1416 66.2933 86.1149 66.48C86.1016 66.6533 86.0683 66.8533 86.0149 67.08L77.8949 67.1V65.14L84.7949 65.12L83.7349 65.94C83.7083 65.3667 83.6016 64.8867 83.4149 64.5C83.2416 64.1133 82.9816 63.82 82.6349 63.62C82.3016 63.4067 81.8883 63.3 81.3949 63.3C80.8749 63.3 80.4216 63.42 80.0349 63.66C79.6483 63.8867 79.3483 64.2133 79.1349 64.64C78.9349 65.0533 78.8349 65.5467 78.8349 66.12C78.8349 66.7067 78.9416 67.22 79.1549 67.66C79.3816 68.0867 79.7016 68.42 80.1149 68.66C80.5283 68.8867 81.0083 69 81.5549 69C82.0483 69 82.4949 68.92 82.8949 68.76C83.2949 68.5867 83.6416 68.3333 83.9349 68L85.4749 69.54C85.0083 70.0867 84.4349 70.5 83.7549 70.78C83.0883 71.06 82.3616 71.2 81.5749 71.2ZM91.9615 71V56.94H94.6815V71H91.9615ZM93.9615 65.24V62.82H101.041V65.24H93.9615ZM93.9615 59.34V56.94H101.381V59.34H93.9615ZM106.952 71.2C106.072 71.2 105.279 70.98 104.572 70.54C103.865 70.1 103.312 69.5 102.912 68.74C102.512 67.98 102.312 67.1267 102.312 66.18C102.312 65.22 102.512 64.36 102.912 63.6C103.312 62.84 103.865 62.24 104.572 61.8C105.279 61.36 106.072 61.14 106.952 61.14C107.645 61.14 108.265 61.28 108.812 61.56C109.359 61.84 109.792 62.2333 110.112 62.74C110.445 63.2333 110.625 63.7933 110.652 64.42V67.9C110.625 68.54 110.445 69.1067 110.112 69.6C109.792 70.0933 109.359 70.4867 108.812 70.78C108.265 71.06 107.645 71.2 106.952 71.2ZM107.432 68.78C108.165 68.78 108.759 68.54 109.212 68.06C109.665 67.5667 109.892 66.9333 109.892 66.16C109.892 65.6533 109.785 65.2067 109.572 64.82C109.372 64.42 109.085 64.1133 108.712 63.9C108.352 63.6733 107.925 63.56 107.432 63.56C106.952 63.56 106.525 63.6733 106.152 63.9C105.792 64.1133 105.505 64.42 105.292 64.82C105.092 65.2067 104.992 65.6533 104.992 66.16C104.992 66.68 105.092 67.14 105.292 67.54C105.505 67.9267 105.792 68.2333 106.152 68.46C106.525 68.6733 106.952 68.78 107.432 68.78ZM109.752 71V68.4L110.172 66.04L109.752 63.72V61.34H112.352V71H109.752ZM119.23 71.2C118.243 71.2 117.356 70.98 116.57 70.54C115.783 70.1 115.163 69.5 114.71 68.74C114.256 67.98 114.03 67.1267 114.03 66.18C114.03 65.22 114.256 64.36 114.71 63.6C115.163 62.84 115.783 62.24 116.57 61.8C117.37 61.3467 118.256 61.12 119.23 61.12C119.99 61.12 120.69 61.26 121.33 61.54C121.97 61.82 122.523 62.22 122.99 62.74L121.31 64.44C121.056 64.16 120.75 63.9467 120.39 63.8C120.043 63.6533 119.656 63.58 119.23 63.58C118.75 63.58 118.316 63.6933 117.93 63.92C117.556 64.1333 117.256 64.4333 117.03 64.82C116.816 65.1933 116.71 65.64 116.71 66.16C116.71 66.6667 116.816 67.12 117.03 67.52C117.256 67.9067 117.556 68.2133 117.93 68.44C118.316 68.6533 118.75 68.76 119.23 68.76C119.67 68.76 120.063 68.6867 120.41 68.54C120.77 68.38 121.076 68.1533 121.33 67.86L123.03 69.56C122.536 70.0933 121.97 70.5 121.33 70.78C120.69 71.06 119.99 71.2 119.23 71.2ZM124.514 71V61.34H127.154V71H124.514ZM125.834 59.78C125.407 59.78 125.054 59.64 124.774 59.36C124.494 59.0667 124.354 58.7067 124.354 58.28C124.354 57.8667 124.494 57.5133 124.774 57.22C125.054 56.9267 125.407 56.78 125.834 56.78C126.274 56.78 126.627 56.9267 126.894 57.22C127.174 57.5133 127.314 57.8667 127.314 58.28C127.314 58.7067 127.174 59.0667 126.894 59.36C126.627 59.64 126.274 59.78 125.834 59.78ZM129.474 71V56.54H132.094V71H129.474ZM139.036 71.2C138.023 71.2 137.123 70.9867 136.336 70.56C135.549 70.12 134.923 69.52 134.456 68.76C134.003 68 133.776 67.1333 133.776 66.16C133.776 65.2 133.996 64.3467 134.436 63.6C134.889 62.84 135.503 62.24 136.276 61.8C137.049 61.3467 137.909 61.12 138.856 61.12C139.789 61.12 140.609 61.3333 141.316 61.76C142.036 62.1733 142.596 62.7467 142.996 63.48C143.409 64.2 143.616 65.02 143.616 65.94C143.616 66.1133 143.603 66.2933 143.576 66.48C143.563 66.6533 143.529 66.8533 143.476 67.08L135.356 67.1V65.14L142.256 65.12L141.196 65.94C141.169 65.3667 141.063 64.8867 140.876 64.5C140.703 64.1133 140.443 63.82 140.096 63.62C139.763 63.4067 139.349 63.3 138.856 63.3C138.336 63.3 137.883 63.42 137.496 63.66C137.109 63.8867 136.809 64.2133 136.596 64.64C136.396 65.0533 136.296 65.5467 136.296 66.12C136.296 66.7067 136.403 67.22 136.616 67.66C136.843 68.0867 137.163 68.42 137.576 68.66C137.989 68.8867 138.469 69 139.016 69C139.509 69 139.956 68.92 140.356 68.76C140.756 68.5867 141.103 68.3333 141.396 68L142.936 69.54C142.469 70.0867 141.896 70.5 141.216 70.78C140.549 71.06 139.823 71.2 139.036 71.2ZM149.662 66.1L149.262 56.54H152.062L151.662 66.1H149.662ZM150.662 71.2C150.182 71.2 149.789 71.04 149.482 70.72C149.176 70.4 149.022 70.0067 149.022 69.54C149.022 69.0733 149.176 68.68 149.482 68.36C149.789 68.04 150.182 67.88 150.662 67.88C151.142 67.88 151.536 68.04 151.842 68.36C152.149 68.68 152.302 69.0733 152.302 69.54C152.302 70.0067 152.149 70.4 151.842 70.72C151.536 71.04 151.142 71.2 150.662 71.2Z" fill="#20201F"/>
</svg>
