<svg width="53" height="53" viewBox="0 0 53 53" fill="none" xmlns="http://www.w3.org/2000/svg">
<path d="M13.0726 17.8724C12.4 17.2479 12.0654 16.4748 12.0654 15.555C12.0654 14.6351 12.4018 13.828 13.0726 13.2017C13.7453 12.5771 14.6112 12.2639 15.6721 12.2639C16.733 12.2639 17.565 12.5771 18.2359 13.2017C18.9085 13.8262 19.2431 14.6118 19.2431 15.555C19.2431 16.4981 18.9068 17.2479 18.2359 17.8724C17.5632 18.497 16.7098 18.8102 15.6721 18.8102C14.6345 18.8102 13.7453 18.497 13.0726 17.8724ZM18.6778 21.4552V40.6037H12.629V21.4552H18.6778Z" fill="#F1F1F1"/>
<path d="M38.8138 23.3467C40.1323 24.7784 40.7907 26.7433 40.7907 29.2452V40.2654H35.0461V30.0218C35.0461 28.7602 34.7187 27.7795 34.0657 27.0815C33.4127 26.3836 32.5325 26.0329 31.4304 26.0329C30.3284 26.0329 29.4481 26.3818 28.7951 27.0815C28.1421 27.7795 27.8147 28.7602 27.8147 30.0218V40.2654H22.0361V21.4014H27.8147V23.9032C28.3998 23.0693 29.1888 22.4108 30.1799 21.9258C31.171 21.4408 32.2856 21.1992 33.5254 21.1992C35.7331 21.1992 37.4971 21.915 38.8138 23.3467Z" fill="#F1F1F1"/>
<path d="M26.4851 52.8695H26.3688C11.8292 52.8695 0 41.0368 0 26.4929V26.3766C0 11.8327 11.8292 0 26.3688 0H26.4851C41.0247 0 52.854 11.8327 52.854 26.3766V26.4929C52.854 41.0368 41.0247 52.8695 26.4851 52.8695ZM26.3688 1.78958C12.815 1.78958 1.78905 12.8187 1.78905 26.3766V26.4929C1.78905 40.0508 12.815 51.0799 26.3688 51.0799H26.4851C40.039 51.0799 51.0649 40.0508 51.0649 26.4929V26.3766C51.0649 12.8187 40.039 1.78958 26.4851 1.78958H26.3688Z" fill="#F1F1F1"/>
</svg>
