<svg width="53" height="53" viewBox="0 0 53 53" fill="none" xmlns="http://www.w3.org/2000/svg">
<path d="M24.4502 27.3948C24.0065 26.8383 23.4984 26.4124 22.9295 26.1243C23.4322 25.8182 23.8652 25.4424 24.223 24.995C24.8259 24.2398 25.1318 23.2931 25.1318 22.18C25.1318 21.2512 24.8867 20.3976 24.4019 19.6442C23.9189 18.8908 23.1997 18.2859 22.264 17.8457C21.348 17.4144 20.2441 17.196 18.9864 17.196H11.832V35.677H19.3156C20.5411 35.677 21.636 35.4533 22.5681 35.0131C23.5181 34.5657 24.2588 33.9393 24.7669 33.1537C25.2767 32.3645 25.5362 31.4679 25.5362 30.489C25.5362 29.3419 25.1712 28.3021 24.4502 27.3966V27.3948ZM20.6503 24.0269C20.2084 24.3848 19.5625 24.5673 18.7342 24.5673H15.6391V20.4728H18.7342C19.5589 20.4728 20.2012 20.6607 20.6431 21.0329C21.0671 21.389 21.2729 21.8811 21.2729 22.5326C21.2729 23.184 21.0689 23.6886 20.6503 24.0269ZM15.6391 27.8458H18.9614C19.8309 27.8458 20.5 28.057 21.0063 28.4919C21.4911 28.9088 21.7273 29.4618 21.7273 30.1848C21.7273 30.9078 21.509 31.4178 21.0582 31.799C20.5912 32.1945 19.9203 32.3949 19.0616 32.3949H15.6391V27.8458Z" fill="#F1F1F1"/>
<path d="M40.1534 24.306C39.5773 23.2645 38.7615 22.4431 37.7274 21.8668C36.6952 21.2906 35.5019 20.9989 34.1851 20.9989C32.8684 20.9989 31.5856 21.2995 30.5283 21.8919C29.4692 22.486 28.6355 23.3397 28.0523 24.4331C27.469 25.5248 27.1738 26.8061 27.1738 28.2413C27.1738 29.6765 27.478 30.9597 28.0791 32.0495C28.6802 33.1412 29.5211 34.0002 30.5802 34.6015C31.6375 35.2028 32.8505 35.507 34.1869 35.507C35.8275 35.507 37.2211 35.09 38.3304 34.2686C39.4396 33.4472 40.216 32.377 40.64 31.0903L40.6704 30.9991H37.4251L37.4054 31.0384C36.781 32.3037 35.6987 32.9443 34.1851 32.9443C33.1314 32.9443 32.2297 32.6097 31.5051 31.9529C30.7984 31.3104 30.3923 30.4515 30.2975 29.3974H40.9102L40.9191 29.3383C40.9871 28.9142 41.0211 28.4346 41.0211 27.9138C41.0211 26.5609 40.7295 25.3475 40.1534 24.306ZM31.5552 24.4921C32.2458 23.8747 33.0884 23.5634 34.0581 23.5634C35.1297 23.5634 36.0404 23.8801 36.7649 24.5065C37.4698 25.1149 37.8437 25.9328 37.8759 26.9349H30.3279C30.471 25.9167 30.8843 25.0952 31.557 24.4939L31.5552 24.4921Z" fill="#F1F1F1"/>
<path d="M37.6301 17.6219H30.5615V19.297H37.6301V17.6219Z" fill="#F1F1F1"/>
<path d="M26.4841 52.8695H26.3678C11.8282 52.8695 -0.000976562 41.0368 -0.000976562 26.4929V26.3766C-0.000976562 11.8327 11.8282 0 26.3678 0H26.4841C41.0238 0 52.853 11.8327 52.853 26.3766V26.4929C52.853 41.0368 41.0238 52.8695 26.4841 52.8695ZM26.3678 1.78958C12.814 1.78958 1.78807 12.8187 1.78807 26.3766V26.4929C1.78807 40.0508 12.814 51.0799 26.3678 51.0799H26.4841C40.038 51.0799 51.0639 40.0508 51.0639 26.4929V26.3766C51.0639 12.8187 40.038 1.78958 26.4841 1.78958H26.3678Z" fill="#F1F1F1"/>
</svg>
