<svg width="53" height="53" viewBox="0 0 53 53" fill="none" xmlns="http://www.w3.org/2000/svg">
<path d="M26.5886 52.87H26.4723C11.9338 52.87 0.105469 41.0372 0.105469 26.4932V26.3768C0.105469 11.8328 11.9338 0 26.4723 0H26.5886C41.1272 0 52.9555 11.8328 52.9555 26.3768V26.4932C52.9555 41.0372 41.1272 52.87 26.5886 52.87ZM26.4723 1.78959C12.9195 1.78959 1.89439 12.8189 1.89439 26.3768V26.4932C1.89439 40.0511 12.9195 51.0804 26.4723 51.0804H26.5886C40.1415 51.0804 51.1665 40.0511 51.1665 26.4932V26.3768C51.1665 12.8189 40.1415 1.78959 26.5886 1.78959H26.4723Z" fill="#F1F1F1"/>
<path d="M16.8571 17H36.1429C36.1429 17 40 17 40 20.8V32.2C40 32.2 40 36 36.1429 36H16.8571C16.8571 36 13 36 13 32.2V20.8C13 20.8 13 17 16.8571 17Z" stroke="#F1F1F1" stroke-width="2" stroke-linecap="round" stroke-linejoin="round"/>
<path d="M14 19L26.5013 28L39 19.0023" stroke="#F1F1F1" stroke-width="2" stroke-linecap="round" stroke-linejoin="round"/>
</svg>
