<svg width="37" height="36" viewBox="0 0 37 36" fill="none" xmlns="http://www.w3.org/2000/svg">
<path d="M18.0659 36C28.007 36 36.0659 27.9411 36.0659 18C36.0659 8.05887 28.007 0 18.0659 0C8.12479 0 0.065918 8.05887 0.065918 18C0.065918 27.9411 8.12479 36 18.0659 36Z" fill="#FFCC4D"/>
<path d="M18.0659 21C14.4429 21 12.0389 20.578 9.06592 20C8.38692 19.869 7.06592 20 7.06592 22C7.06592 26 11.6609 31 18.0659 31C24.4699 31 29.0659 26 29.0659 22C29.0659 20 27.7449 19.868 27.0659 20C24.0929 20.578 21.6889 21 18.0659 21Z" fill="#664500"/>
<path d="M9.06592 22C9.06592 22 12.0659 23 18.0659 23C24.0659 23 27.0659 22 27.0659 22C27.0659 22 25.0659 26 18.0659 26C11.0659 26 9.06592 22 9.06592 22Z" fill="#F1F1F1"/>
<path d="M12.0659 17C13.4466 17 14.5659 15.433 14.5659 13.5C14.5659 11.567 13.4466 10 12.0659 10C10.6852 10 9.56592 11.567 9.56592 13.5C9.56592 15.433 10.6852 17 12.0659 17Z" fill="#664500"/>
<path d="M24.0659 17C25.4466 17 26.5659 15.433 26.5659 13.5C26.5659 11.567 25.4466 10 24.0659 10C22.6852 10 21.5659 11.567 21.5659 13.5C21.5659 15.433 22.6852 17 24.0659 17Z" fill="#664500"/>
</svg>
