<svg width="58" height="57" viewBox="0 0 58 57" fill="none" xmlns="http://www.w3.org/2000/svg">
<path fill-rule="evenodd" clip-rule="evenodd" d="M12.265 4.375C9.75463 4.375 7.34705 5.37589 5.57193 7.15749C3.79681 8.93908 2.79956 11.3554 2.79956 13.875V47.125C2.79956 49.6446 3.79681 52.0609 5.57193 53.8425C7.34705 55.6241 9.75463 56.625 12.265 56.625H45.3942C47.9046 56.625 50.3122 55.6241 52.0873 53.8425C53.8624 52.0609 54.8597 49.6446 54.8597 47.125V13.875C54.8597 11.3554 53.8624 8.93908 52.0873 7.15749C50.3122 5.37589 47.9046 4.375 45.3942 4.375H12.265ZM26.6171 27.0919L13.2636 17.5444H11.5125C11.1827 17.5441 10.8608 17.6453 10.59 17.8343C10.3193 18.0232 10.1127 18.2909 9.99805 18.6012L27.6464 31.5331L45.2948 18.6012C45.1802 18.2909 44.9736 18.0232 44.7028 17.8343C44.4321 17.6453 44.1101 17.5441 43.7803 17.5444H42.0292L28.6758 27.0919L27.6464 27.8281L26.6171 27.0919ZM35.9122 17.5444H19.3807L27.6464 23.4534L35.9122 17.5444ZM9.89867 22.9404V41.8359C9.89867 42.7289 10.6204 43.4532 11.5125 43.4532H13.77V25.7761L9.89867 22.9404ZM45.3942 22.9404L41.5228 25.7761V43.4556H43.7803C44.2084 43.4556 44.6188 43.285 44.9215 42.9812C45.2242 42.6774 45.3942 42.2655 45.3942 41.8359V22.9404ZM37.9733 28.3791L28.6924 35.1787L27.6464 35.9435L26.6005 35.1787L17.3196 28.3791V43.4556H37.9733V28.3791Z" fill="#F1F1F1"/>
</svg>
