<svg width="58" height="57" viewBox="0 0 58 57" fill="none" xmlns="http://www.w3.org/2000/svg">
<path fill-rule="evenodd" clip-rule="evenodd" d="M12.5487 4.375C10.0383 4.375 7.63075 5.37589 5.85563 7.15749C4.0805 8.93908 3.08325 11.3554 3.08325 13.875V47.125C3.08325 49.6446 4.0805 52.0609 5.85563 53.8425C7.63075 55.6241 10.0383 56.625 12.5487 56.625H45.6779C48.1883 56.625 50.5959 55.6241 52.371 53.8425C54.1461 52.0609 55.1434 49.6446 55.1434 47.125V13.875C55.1434 11.3554 54.1461 8.93908 52.371 7.15749C50.5959 5.37589 48.1883 4.375 45.6779 4.375H12.5487ZM33.9549 18.3542V21.5938H44.4403V18.3542H33.9549ZM38.7941 24.0234C35.9971 24.0234 33.7538 25.1278 32.2203 26.9328C30.7011 28.7211 29.9202 31.1436 29.9202 33.7395C29.9202 36.0955 31.0088 38.3185 32.6321 39.9382C34.2531 41.5627 36.4656 42.6457 38.7941 42.6457C41.1463 42.6457 43.5434 41.9499 45.5572 40.7576L43.1482 36.542C41.8347 37.3421 40.3306 37.772 38.7941 37.7865C37.3246 37.7865 35.9639 36.7486 35.2446 35.3569H46.8611V32.9296C46.8611 28.4076 43.8014 24.0234 38.7918 24.0234H38.7941ZM34.2815 31.3099H42.6063C42.1165 29.4574 40.8174 28.0704 38.7941 28.0704C36.5745 28.0704 34.9038 29.1914 34.2815 31.3099ZM20.6417 19.1641H11.3655V41.8359H22.2556C23.6771 41.8355 25.0634 41.3917 26.2226 40.566C27.3819 39.7403 28.2568 38.5734 28.7264 37.2268C29.196 35.8802 29.237 34.4204 28.8438 33.0493C28.4506 31.6783 27.6426 30.4638 26.5316 29.5738C27.1522 28.529 27.4858 27.3379 27.4986 26.1217C27.5113 24.9054 27.2027 23.7075 26.6042 22.6499C26.0056 21.5923 25.1385 20.7128 24.0912 20.1009C23.0438 19.489 21.8536 19.1666 20.6417 19.1665V19.1641ZM16.2048 37.7865V32.1198H21.4486C21.8194 32.1198 22.1865 32.193 22.529 32.3354C22.8715 32.4778 23.1827 32.6865 23.4449 32.9496C23.707 33.2127 23.915 33.5251 24.0568 33.8688C24.1987 34.2126 24.2717 34.581 24.2717 34.9531C24.2717 35.3252 24.1987 35.6936 24.0568 36.0374C23.915 36.3812 23.707 36.6935 23.4449 36.9566C23.1827 37.2197 22.8715 37.4284 22.529 37.5708C22.1865 37.7132 21.8194 37.7865 21.4486 37.7865H16.2048ZM19.8371 28.8803C20.5859 28.8803 21.3039 28.5817 21.8334 28.0504C22.3628 27.519 22.6602 26.7983 22.6602 26.0469C22.6602 25.2954 22.3628 24.5747 21.8334 24.0434C21.3039 23.512 20.5859 23.2135 19.8371 23.2135H16.2048V28.8803H19.8371Z" fill="#F1F1F1"/>
</svg>
