<svg width="57" height="57" viewBox="0 0 57 57" fill="none" xmlns="http://www.w3.org/2000/svg">
<path fill-rule="evenodd" clip-rule="evenodd" d="M11.8319 2.375C9.32153 2.375 6.91395 3.37589 5.13883 5.15749C3.36371 6.93908 2.36646 9.35544 2.36646 11.875V45.125C2.36646 47.6446 3.36371 50.0609 5.13883 51.8425C6.91395 53.6241 9.32153 54.625 11.8319 54.625H44.9611C47.4715 54.625 49.8791 53.6241 51.6542 51.8425C53.4293 50.0609 54.4266 47.6446 54.4266 45.125V11.875C54.4266 9.35544 53.4293 6.93908 51.6542 5.15749C49.8791 3.37589 47.4715 2.375 44.9611 2.375H11.8319ZM14.6834 18.7863C15.7535 18.7863 16.7797 18.3596 17.5363 17.6002C18.293 16.8408 18.7181 15.8108 18.7181 14.7369C18.7181 13.6629 18.293 12.6329 17.5363 11.8735C16.7797 11.1141 15.7535 10.6875 14.6834 10.6875C13.6133 10.6875 12.5871 11.1141 11.8305 11.8735C11.0738 12.6329 10.6487 13.6629 10.6487 14.7369C10.6487 15.8108 11.0738 16.8408 11.8305 17.6002C12.5871 18.3596 13.6133 18.7863 14.6834 18.7863ZM18.7157 46.3125V22.0234H10.6487V46.3125H18.7181H18.7157ZM29.2034 22.0234H21.9434V46.3125H29.2034V31.6588C30.1382 30.134 31.752 28.5 34.0427 28.5C37.2704 28.5 38.0773 31.7395 38.0773 33.3593V46.3125H46.1443V33.3593C46.1443 29.0178 44.2583 22.0234 37.2704 22.0234C32.8264 22.0234 30.3606 23.6503 29.2011 25.175V22.0234H29.2034Z" fill="#F1F1F1"/>
</svg>
