<svg width="114" height="37" viewBox="0 0 114 37" fill="none" xmlns="http://www.w3.org/2000/svg">
<path d="M3 16C1.61929 16 0.5 17.1193 0.5 18.5C0.5 19.8807 1.61929 21 3 21V16ZM112.768 20.2678C113.744 19.2915 113.744 17.7085 112.768 16.7322L96.8579 0.82233C95.8816 -0.15398 94.2986 -0.15398 93.3223 0.82233C92.346 1.79864 92.346 3.38155 93.3223 4.35786L107.464 18.5L93.3223 32.6421C92.346 33.6184 92.346 35.2014 93.3223 36.1777C94.2986 37.154 95.8816 37.154 96.8579 36.1777L112.768 20.2678ZM3 21H111V16H3V21Z" fill="#23120B"/>
</svg>
