<svg width="114" height="37" viewBox="0 0 114 37" fill="none" xmlns="http://www.w3.org/2000/svg">
<path d="M111 21C112.381 21 113.5 19.8807 113.5 18.5C113.5 17.1193 112.381 16 111 16L111 21ZM1.23223 16.7322C0.25592 17.7085 0.25592 19.2914 1.23223 20.2678L17.1421 36.1777C18.1184 37.154 19.7014 37.154 20.6777 36.1777C21.654 35.2014 21.654 33.6184 20.6777 32.6421L6.53554 18.5L20.6777 4.35786C21.654 3.38155 21.654 1.79863 20.6777 0.822323C19.7014 -0.153988 18.1184 -0.153988 17.1421 0.822322L1.23223 16.7322ZM111 16L3 16L3 21L111 21L111 16Z" fill="#23120B"/>
</svg>
